<?xml version="1.0" encoding="UTF-8" standalone="no"?>
<!DOCTYPE svg PUBLIC "-//W3C//DTD SVG 20010904//EN"
              "http://www.w3.org/TR/2001/REC-SVG-20010904/DTD/svg10.dtd">

<svg xmlns="http://www.w3.org/2000/svg"
     width="4.16667in" height="3.78125in"
     viewBox="0 0 400 363">
  <path id="Selection #3"
        fill="none" stroke="black" stroke-width="1"
        d="M 149.39,6.25
           C 149.21,8.41 148.00,8.39 146.12,8.43
             146.12,8.43 146.12,7.34 146.12,7.34
             146.12,7.34 145.85,8.97 145.85,8.97
             144.56,8.98 142.74,9.12 141.50,9.44
             140.50,9.69 139.54,10.29 138.50,10.29
             137.42,10.29 137.17,9.91 136.87,8.97
             136.87,8.97 136.33,8.97 136.33,8.97
             136.29,9.41 136.30,9.87 136.05,10.25
             135.58,10.95 133.81,11.48 133.61,8.97
             133.61,8.97 128.98,8.70 128.98,8.70
             128.98,8.70 115.37,8.70 115.37,8.70
             109.41,8.71 100.77,10.42 94.97,11.99
             91.61,12.89 88.19,13.66 85.01,15.12
             83.36,15.88 79.98,17.64 78.72,18.85
             77.72,19.82 76.78,21.83 73.98,24.26
             73.98,24.26 67.37,28.02 67.37,28.02
             67.37,28.02 60.41,32.09 60.41,32.09
             60.41,32.09 60.41,32.90 60.41,32.90
             60.41,32.90 51.70,37.52 51.70,37.52
             50.99,38.70 48.95,39.96 47.93,41.06
             47.93,41.06 46.68,42.57 46.68,42.57
             46.68,42.57 45.51,43.57 45.51,43.57
             45.51,43.57 44.36,44.99 44.36,44.99
             44.36,44.99 43.39,45.87 43.39,45.87
             43.39,45.87 40.88,49.06 40.88,49.06
             40.88,49.06 38.78,52.50 38.78,52.50
             37.86,53.96 36.30,55.48 35.92,57.10
             35.73,57.91 35.90,58.96 35.92,59.82
             33.20,59.82 30.18,59.88 28.15,62.06
             26.91,63.39 27.44,64.29 26.85,65.80
             26.85,65.80 23.68,71.85 23.68,71.85
             23.68,71.85 18.23,77.77 18.23,77.77
             19.57,78.19 19.55,78.63 19.59,79.94
             19.59,79.94 18.78,79.94 18.78,79.94
             17.95,82.60 16.21,80.79 14.57,81.98
             12.99,83.12 10.56,87.86 10.07,89.73
             10.07,89.73 11.43,89.73 11.43,89.73
             11.41,91.60 11.45,91.42 10.33,92.83
             9.41,94.00 9.42,94.03 7.89,94.08
             7.89,94.08 7.62,92.18 7.62,92.18
             5.34,94.22 3.67,97.82 3.55,100.88
             3.43,103.74 4.56,105.50 4.61,107.13
             4.65,108.61 3.51,112.22 3.15,113.93
             3.15,113.93 3.15,118.55 3.15,118.55
             3.24,120.12 4.38,121.98 4.84,123.45
             5.28,124.86 5.17,126.34 5.17,127.80
             5.61,127.70 6.06,127.55 6.50,127.64
             8.26,127.96 7.46,131.64 6.50,131.97
             5.52,132.30 5.14,131.54 4.87,130.79
             3.89,132.98 4.45,135.58 4.87,137.86
             4.87,137.86 4.87,140.58 4.87,140.58
             5.19,143.07 6.34,147.01 7.42,149.28
             7.42,149.28 10.61,154.99 10.61,154.99
             11.85,155.72 12.94,157.87 13.93,159.03
             13.93,159.03 18.57,164.50 18.57,164.50
             18.57,164.50 21.73,168.01 21.73,168.01
             21.73,168.01 24.29,171.58 24.29,171.58
             26.43,174.10 32.29,177.53 35.25,179.45
             37.32,180.79 37.59,181.66 39.03,182.75
             39.03,182.75 43.54,185.09 43.54,185.09
             43.54,185.09 56.05,190.43 56.05,190.43
             62.34,192.86 73.07,195.82 79.73,197.29
             79.73,197.29 91.16,199.27 91.16,199.27
             92.12,199.37 95.62,199.51 96.19,200.02
             96.98,200.73 97.11,205.16 97.15,206.38
             97.15,206.38 97.39,208.83 97.39,208.83
             97.66,212.83 97.85,216.70 99.24,220.52
             100.01,222.65 101.18,224.75 102.63,226.49
             103.84,227.96 105.25,229.18 106.26,230.83
             108.32,234.17 112.61,242.43 114.90,244.97
             119.65,250.23 126.56,252.08 133.06,254.17
             133.06,254.17 139.59,256.67 139.59,256.67
             141.26,257.07 143.81,256.97 145.58,256.95
             150.09,256.90 155.37,255.12 159.38,253.11
             159.38,253.11 161.63,251.87 161.63,251.87
             161.63,251.87 169.37,248.52 169.37,248.52
             169.37,248.52 175.67,245.37 175.67,245.37
             176.48,244.87 177.37,243.94 178.41,244.41
             179.28,244.81 179.48,246.06 179.69,246.89
             179.69,246.89 181.59,253.69 181.59,253.69
             184.18,261.45 187.60,269.04 192.25,275.77
             195.78,280.90 199.97,285.76 204.98,289.47
             204.98,289.47 206.56,290.77 206.56,290.77
             208.42,291.96 210.40,293.06 212.52,293.73
             213.33,293.99 215.47,294.22 215.89,294.64
             216.52,295.27 216.04,299.07 216.06,300.19
             216.09,303.03 217.35,306.55 218.46,309.16
             220.22,313.28 221.71,316.18 224.35,319.80
             224.35,319.80 232.08,329.25 232.08,329.25
             235.20,333.60 238.27,339.32 239.60,344.51
             239.60,344.51 240.98,351.31 240.98,351.31
             241.45,353.67 242.43,358.86 242.45,361.10
             248.96,359.20 256.16,357.96 262.86,356.75
             262.86,356.75 262.59,351.58 262.59,351.58
             262.59,351.58 262.29,345.87 262.29,345.87
             262.29,345.87 262.04,342.61 262.04,342.61
             262.04,342.61 262.04,329.01 262.04,329.01
             262.04,327.84 261.87,326.83 263.14,326.30
             263.14,326.30 268.03,325.11 268.03,325.11
             270.31,324.35 272.37,323.14 274.51,322.05
             274.51,322.05 279.74,318.31 279.74,318.31
             280.55,318.04 284.56,319.21 285.71,319.42
             292.18,320.64 293.26,320.86 299.86,320.85
             303.49,320.85 310.44,318.66 313.64,316.88
             313.64,316.88 315.69,315.43 315.69,315.43
             315.69,315.43 318.79,313.92 318.79,313.92
             318.79,313.92 326.26,308.55 326.26,308.55
             327.77,307.25 328.05,306.28 328.76,305.48
             328.76,305.48 330.77,303.53 330.77,303.53
             331.64,302.48 331.43,302.03 332.79,301.28
             333.34,299.05 334.99,297.29 336.01,295.28
             336.01,295.28 337.40,292.30 337.40,292.30
             337.40,292.30 338.31,289.63 338.31,289.63
             339.04,287.92 339.56,287.93 339.89,285.23
             340.05,283.93 339.76,283.19 339.64,281.97
             339.64,281.97 339.39,277.89 339.39,277.89
             339.39,277.89 337.97,272.45 337.97,272.45
             337.94,271.72 337.99,270.74 338.81,270.46
             340.20,269.98 341.94,272.86 342.70,273.78
             344.97,276.56 347.88,278.47 351.56,278.68
             354.32,278.84 358.15,276.96 359.93,274.90
             361.09,273.56 361.92,272.02 362.89,270.54
             362.89,270.54 364.33,268.65 364.33,268.65
             364.33,268.65 366.48,265.54 366.48,265.54
             366.48,265.54 376.20,253.18 376.20,253.18
             376.20,253.18 377.37,251.02 377.37,251.02
             380.47,245.73 381.88,243.78 383.85,237.65
             383.85,237.65 385.47,230.09 385.47,230.09
             385.87,229.14 386.75,229.05 388.12,227.06
             390.69,223.32 392.56,220.28 393.96,215.90
             393.96,215.90 395.01,211.55 395.01,211.55
             395.01,211.55 395.78,208.83 395.78,208.83
             396.38,206.31 396.49,203.52 396.46,200.94
             396.46,200.94 396.21,198.22 396.21,198.22
             396.21,198.22 395.84,191.70 395.84,191.70
             395.84,191.70 394.56,179.73 394.56,179.73
             394.55,171.96 394.52,169.79 392.81,162.06
             391.91,157.99 390.81,155.72 389.19,152.00
             389.19,152.00 387.31,147.69 387.31,147.69
             387.31,147.69 384.49,142.48 384.49,142.48
             381.54,140.74 381.99,138.07 381.09,135.70
             380.61,134.42 379.64,134.34 379.71,133.24
             379.77,132.37 381.05,131.31 381.20,129.16
             381.34,127.16 380.34,125.35 379.97,123.45
             379.97,123.45 379.79,121.27 379.79,121.27
             379.51,118.92 379.20,116.75 378.50,114.47
             376.07,106.65 371.18,97.23 366.55,90.44
             364.21,87.02 361.73,83.30 358.64,80.52
             357.21,79.23 356.19,78.51 354.44,77.70
             354.44,77.70 353.02,77.07 353.02,77.07
             353.02,77.07 349.90,73.95 349.90,73.95
             349.90,73.95 345.98,71.52 345.98,71.52
             345.98,71.52 342.56,68.53 342.56,68.53
             342.56,68.53 338.78,65.89 338.78,65.89
             338.14,65.11 337.88,62.92 337.43,61.77
             337.43,61.77 335.24,57.64 335.24,57.64
             335.24,57.64 330.61,53.45 330.61,53.45
             325.81,50.10 322.41,48.55 317.16,46.12
             317.16,46.12 312.11,44.14 312.11,44.14
             310.76,43.71 309.88,43.72 309.12,42.42
             307.51,42.24 306.15,41.22 304.68,40.58
             304.68,40.58 302.09,39.42 302.09,39.42
             302.09,39.42 298.41,36.83 298.41,36.83
             298.41,36.83 289.17,30.92 289.17,30.92
             289.17,30.92 281.21,26.11 281.21,26.11
             276.85,23.28 274.49,21.19 269.39,19.53
             267.25,18.84 264.55,17.87 262.31,17.96
             262.31,17.96 257.14,18.74 257.14,18.74
             257.14,18.74 253.88,18.74 253.88,18.74
             253.32,17.14 250.87,15.93 249.43,15.07
             244.63,12.19 240.68,10.55 235.10,9.79
             233.39,9.55 229.24,9.59 228.03,8.70
             225.91,9.08 225.45,8.95 223.40,8.97
             221.35,9.00 219.32,9.76 217.41,8.70
             216.06,10.28 213.91,9.87 212.00,10.09
             210.79,10.23 211.08,10.57 209.25,10.60
             208.48,10.62 206.38,10.72 205.80,10.33
             205.02,9.80 205.27,8.91 205.44,8.16
             203.39,8.53 202.57,8.42 200.54,8.43
             200.54,8.43 193.20,9.00 193.20,9.00
             191.98,9.09 189.31,9.63 188.30,9.41
             187.00,9.13 186.92,8.35 183.95,7.34
             180.63,6.23 169.76,3.35 166.53,3.04
             162.51,2.65 161.98,4.24 159.41,4.75
             158.49,4.94 157.83,4.54 156.46,4.75
             156.46,4.75 149.39,6.25 149.39,6.25 Z
           M 239.00,18.98
           C 239.48,18.83 239.94,18.69 240.38,18.98
             240.92,19.46 241.02,20.85 239.96,21.12
             238.52,21.48 237.83,19.91 239.00,18.98 Z
           M 4.90,129.43
           C 4.90,129.43 4.90,129.70 4.90,129.70
             4.90,129.70 5.17,129.43 5.17,129.43
             5.17,129.43 4.90,129.43 4.90,129.43 Z
           M 5.53,133.19
           C 6.01,133.03 6.47,132.90 6.91,133.19
             7.45,133.66 7.55,135.06 6.49,135.32
             5.05,135.68 4.36,134.11 5.53,133.19 Z
           M 105.94,226.94
           C 107.18,226.68 108.03,227.20 108.42,228.45
             108.77,229.56 108.22,230.50 106.97,230.22
             105.75,229.94 104.70,227.98 105.94,226.94 Z
           M 136.68,251.19
           C 137.16,251.04 137.63,250.91 138.07,251.19
             138.61,251.67 138.70,253.07 137.65,253.33
             136.21,253.69 135.52,252.12 136.68,251.19 Z" />
</svg>
