<?xml version="1.0" encoding="UTF-8" standalone="no"?>
<!DOCTYPE svg PUBLIC "-//W3C//DTD SVG 20010904//EN"
              "http://www.w3.org/TR/2001/REC-SVG-20010904/DTD/svg10.dtd">

<svg xmlns="http://www.w3.org/2000/svg"
     width="15.3125in" height="13.9062in"
     viewBox="0 0 1470 1335">
  <path id="Selection #3"
        fill="none" stroke="black" stroke-width="1"
        d="M 549.00,23.00
           C 548.35,30.93 543.89,30.85 537.00,31.00
             537.00,31.00 537.00,27.00 537.00,27.00
             537.00,27.00 536.00,33.00 536.00,33.00
             531.27,33.01 524.55,33.55 520.00,34.70
             516.34,35.63 512.79,37.86 509.00,37.85
             505.03,37.84 504.10,36.46 503.00,33.00
             503.00,33.00 501.00,33.00 501.00,33.00
             500.87,34.60 500.92,36.28 499.98,37.69
             498.26,40.25 491.75,42.22 491.00,33.00
             491.00,33.00 474.00,32.00 474.00,32.00
             474.00,32.00 424.00,32.00 424.00,32.00
             402.08,32.03 370.33,38.33 349.00,44.08
             336.68,47.40 324.10,50.23 312.42,55.61
             306.34,58.41 293.92,64.88 289.30,69.34
             285.61,72.90 282.15,80.28 271.88,89.23
             271.88,89.23 247.59,103.06 247.59,103.06
             247.59,103.06 222.00,118.00 222.00,118.00
             222.00,118.00 222.00,121.00 222.00,121.00
             222.00,121.00 190.00,138.00 190.00,138.00
             187.39,142.32 179.89,146.95 176.13,151.02
             176.13,151.02 171.55,156.55 171.55,156.55
             171.55,156.55 167.25,160.25 167.25,160.25
             167.25,160.25 163.04,165.45 163.04,165.45
             163.04,165.45 159.46,168.71 159.46,168.71
             159.46,168.71 150.24,180.43 150.24,180.43
             150.24,180.43 142.53,193.08 142.53,193.08
             139.12,198.44 133.38,204.02 131.99,210.00
             131.30,212.97 131.93,216.84 131.99,220.00
             122.02,220.00 110.90,220.23 103.45,228.22
             98.89,233.12 100.83,236.43 98.67,242.00
             98.67,242.00 87.04,264.23 87.04,264.23
             87.04,264.23 67.00,286.00 67.00,286.00
             71.92,287.57 71.83,289.17 72.00,294.00
             72.00,294.00 69.00,294.00 69.00,294.00
             65.95,303.76 59.56,297.13 53.54,301.49
             47.73,305.70 38.79,323.12 37.00,330.00
             37.00,330.00 42.00,330.00 42.00,330.00
             41.93,336.89 42.06,336.23 37.98,341.40
             34.58,345.71 34.63,345.80 29.00,346.00
             29.00,346.00 28.00,339.00 28.00,339.00
             19.62,346.51 13.49,359.75 13.04,371.00
             12.61,381.52 16.77,388.00 16.94,394.00
             17.10,399.44 12.91,412.71 11.58,419.00
             11.58,419.00 11.58,436.00 11.58,436.00
             11.90,441.75 16.10,448.59 17.78,454.00
             19.39,459.19 19.00,464.64 19.00,470.00
             20.61,469.63 22.27,469.09 23.90,469.41
             30.37,470.61 27.42,484.13 23.90,485.34
             20.27,486.57 18.88,483.76 17.91,481.00
             14.29,489.06 16.37,498.61 17.91,507.00
             17.91,507.00 17.91,517.00 17.91,517.00
             19.09,526.18 23.28,540.67 27.25,549.00
             27.25,549.00 39.00,570.00 39.00,570.00
             43.56,572.69 47.55,580.59 51.21,584.85
             51.21,584.85 68.25,604.98 68.25,604.98
             68.25,604.98 79.85,617.88 79.85,617.88
             79.85,617.88 89.26,631.01 89.26,631.01
             97.11,640.28 118.65,652.90 129.55,659.97
             137.14,664.91 138.14,668.08 143.42,672.09
             143.42,672.09 160.00,680.69 160.00,680.69
             160.00,680.69 206.00,700.34 206.00,700.34
             229.09,709.26 268.52,720.17 293.00,725.58
             293.00,725.58 335.00,732.84 335.00,732.84
             338.56,733.22 351.41,733.72 353.49,735.60
             356.40,738.22 356.88,754.50 357.01,759.00
             357.01,759.00 357.91,768.00 357.91,768.00
             358.92,782.71 359.58,796.95 364.69,811.00
             367.54,818.82 371.85,826.55 377.17,832.97
             381.63,838.35 386.80,842.86 390.52,848.92
             398.07,861.21 413.83,891.59 422.25,900.93
             439.71,920.28 465.09,927.08 489.00,934.75
             489.00,934.75 513.00,943.96 513.00,943.96
             519.13,945.43 528.48,945.07 535.00,945.00
             551.59,944.80 571.00,938.25 585.72,930.86
             585.72,930.86 594.00,926.31 594.00,926.31
             594.00,926.31 622.44,913.99 622.44,913.99
             622.44,913.99 645.58,902.39 645.58,902.39
             648.57,900.55 651.82,897.13 655.66,898.87
             658.87,900.33 659.60,904.93 660.37,908.00
             660.37,908.00 667.35,933.00 667.35,933.00
             676.86,961.51 689.43,989.43 706.51,1014.21
             719.50,1033.07 734.87,1050.95 753.29,1064.56
             753.29,1064.56 759.10,1069.37 759.10,1069.37
             765.95,1073.75 773.23,1077.77 781.00,1080.25
             783.97,1081.20 791.85,1082.04 793.40,1083.60
             795.70,1085.91 793.96,1099.88 794.00,1104.00
             794.13,1114.46 798.76,1127.40 802.85,1137.00
             809.30,1152.14 814.79,1162.83 824.50,1176.14
             824.50,1176.14 852.90,1210.87 852.90,1210.87
             864.38,1226.89 875.63,1247.91 880.52,1267.00
             880.52,1267.00 885.60,1292.00 885.60,1292.00
             887.34,1300.70 890.93,1319.78 891.00,1328.00
             914.94,1321.01 941.40,1316.48 966.00,1312.00
             966.00,1312.00 965.00,1293.00 965.00,1293.00
             965.00,1293.00 963.91,1272.00 963.91,1272.00
             963.91,1272.00 963.00,1260.00 963.00,1260.00
             963.00,1260.00 963.00,1210.00 963.00,1210.00
             963.01,1205.69 962.38,1201.97 967.06,1200.03
             967.06,1200.03 985.00,1195.65 985.00,1195.65
             993.39,1192.85 1000.98,1188.41 1008.83,1184.39
             1008.83,1184.39 1028.04,1170.64 1028.04,1170.64
             1031.01,1169.66 1045.78,1173.95 1050.00,1174.74
             1073.78,1179.20 1077.74,1180.04 1102.00,1180.00
             1115.33,1179.98 1140.87,1171.95 1152.61,1165.40
             1152.61,1165.40 1160.17,1160.07 1160.17,1160.07
             1160.17,1160.07 1171.55,1154.50 1171.55,1154.50
             1171.55,1154.50 1199.01,1134.74 1199.01,1134.74
             1204.57,1129.98 1205.59,1126.41 1208.20,1123.47
             1208.20,1123.47 1215.59,1116.29 1215.59,1116.29
             1218.76,1112.41 1218.00,1110.77 1223.00,1108.00
             1225.04,1099.81 1231.08,1093.33 1234.82,1085.96
             1234.82,1085.96 1239.94,1075.00 1239.94,1075.00
             1239.94,1075.00 1243.30,1065.17 1243.30,1065.17
             1245.97,1058.87 1247.89,1058.91 1249.11,1049.00
             1249.69,1044.21 1248.60,1041.50 1248.17,1037.00
             1248.17,1037.00 1247.25,1022.00 1247.25,1022.00
             1247.25,1022.00 1242.05,1002.00 1242.05,1002.00
             1241.95,999.31 1242.10,995.70 1245.13,994.66
             1250.24,992.90 1256.64,1003.49 1259.40,1006.87
             1267.77,1017.11 1278.47,1024.12 1292.00,1024.91
             1302.14,1025.50 1316.20,1018.58 1322.74,1011.01
             1327.01,1006.07 1330.06,1000.39 1333.60,994.98
             1333.60,994.98 1338.92,988.00 1338.92,988.00
             1338.92,988.00 1346.81,976.58 1346.81,976.58
             1346.81,976.58 1382.54,931.12 1382.54,931.12
             1382.54,931.12 1386.85,923.17 1386.85,923.17
             1398.22,903.74 1403.42,896.56 1410.66,874.00
             1410.66,874.00 1416.59,846.18 1416.59,846.18
             1418.07,842.72 1421.30,842.38 1426.34,835.05
             1435.77,821.31 1442.66,810.12 1447.81,794.00
             1447.81,794.00 1451.65,778.00 1451.65,778.00
             1451.65,778.00 1454.50,768.00 1454.50,768.00
             1456.68,758.75 1457.11,748.47 1457.00,739.00
             1457.00,739.00 1456.09,729.00 1456.09,729.00
             1456.09,729.00 1454.72,705.00 1454.72,705.00
             1454.72,705.00 1450.00,661.00 1450.00,661.00
             1449.96,632.43 1449.86,624.43 1443.58,596.00
             1440.27,581.04 1436.22,572.68 1430.29,559.00
             1430.29,559.00 1423.36,543.17 1423.36,543.17
             1423.36,543.17 1413.00,524.00 1413.00,524.00
             1402.17,517.61 1403.82,507.78 1400.52,499.05
             1398.74,494.35 1395.17,494.06 1395.44,490.02
             1395.66,486.83 1400.35,482.92 1400.90,475.00
             1401.41,467.66 1397.76,460.98 1396.38,454.00
             1396.38,454.00 1395.72,446.00 1395.72,446.00
             1394.69,437.35 1393.57,429.36 1390.98,421.00
             1382.06,392.23 1364.10,357.57 1347.05,332.62
             1338.46,320.05 1329.35,306.36 1318.00,296.13
             1312.75,291.39 1308.99,288.75 1302.58,285.74
             1302.58,285.74 1297.33,283.43 1297.33,283.43
             1297.33,283.43 1285.89,271.97 1285.89,271.97
             1285.89,271.97 1271.46,263.04 1271.46,263.04
             1271.46,263.04 1258.91,252.05 1258.91,252.05
             1258.91,252.05 1245.03,242.32 1245.03,242.32
             1242.65,239.44 1241.71,231.39 1240.07,227.17
             1240.07,227.17 1232.00,212.00 1232.00,212.00
             1232.00,212.00 1214.97,196.58 1214.97,196.58
             1197.34,184.23 1184.87,178.54 1165.58,169.61
             1165.58,169.61 1147.00,162.34 1147.00,162.34
             1142.03,160.74 1138.80,160.79 1136.00,156.00
             1130.09,155.33 1125.09,151.59 1119.72,149.22
             1119.72,149.22 1110.17,144.98 1110.17,144.98
             1110.17,144.98 1096.67,135.46 1096.67,135.46
             1096.67,135.46 1062.71,113.71 1062.71,113.71
             1062.71,113.71 1033.45,96.03 1033.45,96.03
             1017.44,85.60 1008.76,77.92 990.00,71.84
             982.15,69.29 972.22,65.72 964.00,66.04
             964.00,66.04 945.00,68.91 945.00,68.91
             945.00,68.91 933.00,68.91 933.00,68.91
             930.94,63.04 921.93,58.59 916.67,55.43
             899.03,44.83 884.52,38.81 864.00,36.00
             857.71,35.14 842.46,35.28 838.00,32.00
             830.23,33.39 828.54,32.92 821.00,33.00
             813.45,33.09 806.00,35.90 799.00,32.00
             794.03,37.82 786.11,36.30 779.09,37.11
             774.67,37.63 775.71,38.88 769.00,39.00
             766.18,39.04 758.45,39.41 756.31,37.98
             753.44,36.05 754.36,32.77 755.00,30.00
             747.44,31.35 744.44,30.97 737.00,31.00
             737.00,31.00 710.00,33.09 710.00,33.09
             705.53,33.41 695.73,35.42 692.00,34.60
             687.23,33.56 686.94,30.70 676.00,27.00
             663.83,22.90 623.87,12.30 612.00,11.17
             597.21,9.75 595.29,15.61 585.83,17.47
             582.44,18.17 580.04,16.71 575.00,17.47
             575.00,17.47 549.00,23.00 549.00,23.00 Z
           M 878.31,69.81
           C 880.07,69.24 881.78,68.75 883.40,69.81
             885.38,71.57 885.73,76.70 881.86,77.67
             876.55,79.00 874.02,73.21 878.31,69.81 Z
           M 18.00,476.00
           C 18.00,476.00 18.00,477.00 18.00,477.00
             18.00,477.00 19.00,476.00 19.00,476.00
             19.00,476.00 18.00,476.00 18.00,476.00 Z
           M 20.31,489.81
           C 22.07,489.24 23.78,488.75 25.40,489.81
             27.38,491.57 27.73,496.70 23.86,497.67
             18.55,499.00 16.02,493.21 20.31,489.81 Z
           M 389.31,834.60
           C 393.89,833.66 397.00,835.59 398.45,840.17
             399.74,844.24 397.69,847.70 393.12,846.67
             388.61,845.66 384.76,838.43 389.31,834.60 Z
           M 502.31,923.81
           C 504.07,923.24 505.78,922.75 507.40,923.81
             509.38,925.57 509.73,930.70 505.86,931.67
             500.55,933.00 498.02,927.21 502.31,923.81 Z" />
</svg>
