<?xml version="1.0" encoding="UTF-8" standalone="no"?>
<!DOCTYPE svg PUBLIC "-//W3C//DTD SVG 20010904//EN"
              "http://www.w3.org/TR/2001/REC-SVG-20010904/DTD/svg10.dtd">

<svg xmlns="http://www.w3.org/2000/svg"
     width="15.3125in" height="13.9062in"
     viewBox="0 0 1470 1335">
  <path id="Selection #2"
        fill="none" stroke="black" stroke-width="1"
        d="M 502.00,25.00
           C 499.78,22.53 498.19,23.04 495.00,23.00
             495.00,23.00 495.00,27.00 495.00,27.00
             495.00,27.00 487.91,25.12 487.91,25.12
             487.91,25.12 459.00,26.00 459.00,26.00
             450.98,25.95 452.76,24.81 448.85,24.25
             444.48,23.63 444.25,25.87 437.00,25.79
             437.00,25.79 419.00,25.79 419.00,25.79
             415.33,25.09 411.70,23.99 409.00,27.00
             399.88,24.78 386.38,27.99 377.00,29.57
             353.34,33.54 312.60,42.60 293.00,55.75
             275.37,67.57 275.72,77.40 261.00,85.65
             261.00,85.65 244.00,94.45 244.00,94.45
             244.00,94.45 207.00,118.12 207.00,118.12
             207.00,118.12 183.04,133.23 183.04,133.23
             176.08,138.76 162.25,152.38 156.09,159.00
             146.47,169.33 142.44,176.70 135.00,188.00
             135.00,188.00 126.92,199.17 126.92,199.17
             126.92,199.17 121.44,209.44 121.44,209.44
             118.49,212.61 113.85,212.76 110.00,214.10
             104.67,215.95 99.32,219.15 95.61,223.43
             86.71,233.66 89.34,244.98 79.22,258.99
             79.22,258.99 57.05,282.00 57.05,282.00
             57.05,282.00 51.17,289.82 51.17,289.82
             51.17,289.82 45.18,296.18 45.18,296.18
             36.49,307.17 32.93,318.49 28.21,325.00
             23.29,331.80 16.86,334.09 10.89,347.00
             6.07,357.40 6.05,360.13 6.82,371.00
             7.07,374.54 6.41,375.86 6.18,379.00
             6.18,379.00 8.11,395.00 8.11,395.00
             8.37,403.27 1.61,417.82 2.10,429.00
             2.40,435.63 3.97,443.84 6.45,450.00
             6.45,450.00 12.47,464.15 12.47,464.15
             13.03,466.96 11.27,470.16 10.61,473.04
             9.15,479.40 8.43,482.55 10.00,489.00
             7.32,491.41 7.93,494.55 8.01,498.00
             8.01,498.00 9.70,509.00 9.70,509.00
             9.70,509.00 10.42,518.00 10.42,518.00
             11.92,529.21 14.26,542.66 18.90,553.00
             24.85,566.25 42.11,587.46 51.61,599.00
             51.61,599.00 71.55,622.00 71.55,622.00
             78.74,631.00 80.65,635.59 90.00,643.82
             100.54,653.10 113.30,660.00 125.00,667.70
             134.42,673.89 133.02,676.33 138.10,679.65
             138.10,679.65 158.00,689.94 158.00,689.94
             158.00,689.94 166.00,692.79 166.00,692.79
             166.00,692.79 186.99,702.19 186.99,702.19
             186.99,702.19 192.42,705.16 192.42,705.16
             192.42,705.16 200.27,707.71 200.27,707.71
             200.27,707.71 206.28,710.51 206.28,710.51
             206.28,710.51 216.00,712.72 216.00,712.72
             216.00,712.72 250.00,723.17 250.00,723.17
             250.00,723.17 257.28,726.49 257.28,726.49
             257.28,726.49 268.00,727.89 268.00,727.89
             268.00,727.89 301.00,735.45 301.00,735.45
             308.56,736.96 319.61,740.08 327.00,738.00
             329.64,740.93 332.51,739.85 336.00,739.00
             338.95,742.29 343.98,740.33 348.00,740.00
             348.00,740.00 349.29,748.09 349.29,748.09
             349.29,748.09 349.29,754.91 349.29,754.91
             349.29,754.91 350.25,760.17 350.25,760.17
             350.25,760.17 350.25,767.91 350.25,767.91
             350.25,767.91 351.45,773.17 351.45,773.17
             352.17,777.50 349.25,781.64 353.00,785.00
             349.42,799.75 358.95,824.60 368.32,836.00
             375.71,844.99 390.30,859.92 391.00,872.00
             397.11,875.42 401.98,886.85 405.74,893.00
             412.36,903.81 419.68,912.17 430.00,919.57
             447.39,932.06 468.32,936.40 488.00,943.68
             496.78,946.93 505.23,952.51 515.00,951.82
             515.00,951.82 531.00,951.00 531.00,951.00
             548.10,951.03 540.82,953.67 562.00,948.99
             570.17,947.18 577.56,943.19 586.00,943.00
             589.37,937.21 601.71,932.54 608.00,930.00
             608.00,930.00 652.00,909.00 652.00,909.00
             652.00,909.00 660.03,938.00 660.03,938.00
             664.39,951.72 673.10,972.91 679.32,986.00
             691.95,1012.59 714.38,1041.95 735.96,1061.82
             744.23,1069.43 755.87,1078.87 766.00,1083.68
             766.00,1083.68 785.47,1090.73 785.47,1090.73
             789.54,1094.52 782.65,1103.20 788.00,1108.00
             785.38,1117.26 790.72,1130.28 794.20,1139.00
             807.50,1172.27 816.68,1180.43 838.54,1207.00
             864.93,1239.08 874.07,1267.79 880.27,1308.00
             881.62,1316.70 883.92,1326.24 884.00,1335.00
             901.87,1335.00 903.26,1333.11 920.00,1329.42
             920.00,1329.42 931.00,1327.63 931.00,1327.63
             931.00,1327.63 937.00,1326.21 937.00,1326.21
             937.00,1326.21 944.96,1325.38 944.96,1325.38
             944.96,1325.38 954.01,1322.44 954.01,1322.44
             954.01,1322.44 974.00,1319.00 974.00,1319.00
             974.00,1319.00 972.53,1304.00 972.53,1304.00
             972.53,1304.00 972.53,1296.17 972.53,1296.17
             972.53,1296.17 971.14,1289.96 971.14,1289.96
             971.14,1289.96 971.90,1281.01 971.90,1281.01
             971.90,1281.01 970.65,1272.91 970.65,1272.91
             970.65,1272.91 970.65,1265.09 970.65,1265.09
             970.65,1265.09 969.00,1253.00 969.00,1253.00
             969.00,1253.00 969.00,1207.00 969.00,1207.00
             977.45,1206.61 990.36,1203.63 998.00,1200.04
             1002.41,1197.97 1013.01,1191.58 1017.00,1190.86
             1017.00,1190.86 1028.00,1190.86 1028.00,1190.86
             1027.95,1187.34 1028.66,1185.52 1025.00,1184.00
             1026.87,1182.81 1030.19,1180.54 1032.28,1180.07
             1035.27,1179.40 1040.86,1181.12 1044.00,1181.79
             1044.00,1181.79 1066.00,1185.91 1066.00,1185.91
             1080.96,1188.03 1074.89,1186.06 1087.00,1185.91
             1087.00,1185.91 1100.00,1185.91 1100.00,1185.91
             1100.00,1185.91 1111.00,1186.82 1111.00,1186.82
             1117.28,1187.26 1124.08,1184.71 1130.00,1182.90
             1130.00,1182.90 1139.00,1180.79 1139.00,1180.79
             1150.23,1177.46 1155.41,1173.42 1165.00,1167.68
             1165.00,1167.68 1174.00,1163.53 1174.00,1163.53
             1174.00,1163.53 1204.00,1141.83 1204.00,1141.83
             1211.32,1135.29 1226.20,1117.63 1231.68,1108.99
             1231.68,1108.99 1237.12,1099.00 1237.12,1099.00
             1241.32,1092.11 1244.45,1087.85 1247.31,1080.00
             1247.31,1080.00 1250.32,1071.00 1250.32,1071.00
             1254.29,1061.18 1256.71,1060.11 1256.99,1048.00
             1256.99,1048.00 1255.71,1028.29 1255.71,1028.29
             1255.27,1026.73 1255.01,1026.91 1254.00,1026.00
             1254.00,1026.00 1254.00,1014.00 1254.00,1014.00
             1262.18,1023.94 1271.79,1030.81 1285.00,1031.68
             1287.97,1032.04 1289.29,1031.52 1292.00,1031.68
             1292.00,1031.68 1302.00,1031.68 1302.00,1031.68
             1308.18,1031.55 1316.09,1027.89 1321.00,1024.24
             1333.32,1015.10 1343.87,995.68 1353.37,983.00
             1353.37,983.00 1382.62,947.00 1382.62,947.00
             1382.62,947.00 1407.24,906.00 1407.24,906.00
             1412.71,895.22 1419.17,877.88 1421.25,866.00
             1422.37,859.63 1423.84,856.50 1422.00,850.00
             1429.33,847.09 1433.47,840.27 1437.74,834.00
             1450.47,815.31 1453.39,806.60 1458.50,785.00
             1460.43,776.84 1464.38,768.47 1462.00,760.00
             1465.44,756.91 1463.05,750.32 1463.00,746.00
             1463.00,746.00 1463.94,729.04 1463.94,729.04
             1463.79,725.31 1462.63,724.48 1462.35,721.91
             1462.35,721.91 1462.92,714.04 1462.92,714.04
             1462.81,708.90 1461.36,711.48 1461.82,703.00
             1462.02,699.35 1461.76,692.47 1459.00,690.00
             1460.20,685.78 1460.42,676.07 1457.00,673.00
             1458.90,665.17 1456.01,661.65 1456.02,654.00
             1456.02,654.00 1456.02,638.00 1456.02,638.00
             1456.02,638.00 1456.91,627.00 1456.91,627.00
             1456.72,623.74 1456.50,620.20 1454.00,618.00
             1456.16,610.32 1451.98,593.91 1449.71,586.00
             1444.01,566.16 1435.79,547.01 1425.69,529.00
             1425.69,529.00 1411.52,508.00 1411.52,508.00
             1409.92,504.50 1406.76,490.62 1407.04,487.00
             1407.52,482.08 1411.45,474.99 1407.04,471.00
             1409.70,461.38 1403.33,451.32 1402.84,447.83
             1402.84,447.83 1402.84,441.00 1402.84,441.00
             1402.84,441.00 1401.57,430.00 1401.57,430.00
             1399.92,418.83 1397.38,413.32 1393.69,403.00
             1385.83,380.97 1374.73,359.86 1362.42,340.00
             1350.18,320.24 1338.25,302.95 1321.00,287.09
             1312.84,279.59 1307.28,278.62 1303.00,275.51
             1303.00,275.51 1289.00,263.47 1289.00,263.47
             1289.00,263.47 1274.00,253.48 1274.00,253.48
             1274.00,253.48 1262.00,242.92 1262.00,242.92
             1262.00,242.92 1253.15,237.25 1253.15,237.25
             1249.57,234.32 1249.76,230.15 1248.57,226.00
             1247.21,221.24 1245.13,217.20 1242.54,213.00
             1234.54,200.01 1220.02,188.38 1207.00,180.60
             1193.71,172.67 1180.27,166.10 1166.00,160.14
             1166.00,160.14 1156.00,156.09 1156.00,156.09
             1156.00,156.09 1147.00,153.10 1147.00,153.10
             1147.00,153.10 1130.00,144.27 1130.00,144.27
             1121.30,139.95 1118.92,140.32 1110.00,134.14
             1110.00,134.14 1068.00,106.43 1068.00,106.43
             1068.00,106.43 1039.00,88.92 1039.00,88.92
             1018.68,75.60 1013.15,69.46 989.00,62.57
             984.56,61.31 979.62,59.33 975.00,59.10
             975.00,59.10 967.00,59.82 967.00,59.82
             967.00,59.82 955.00,59.26 955.00,59.26
             949.86,59.21 945.18,61.08 940.00,59.26
             936.56,58.42 927.37,51.09 923.00,48.45
             912.31,42.00 900.99,36.33 889.00,32.72
             866.13,25.83 829.24,25.04 805.00,25.00
             794.50,24.98 796.04,23.51 790.00,23.10
             790.00,23.10 778.00,23.97 778.00,23.97
             772.87,23.90 772.41,22.39 768.91,22.15
             768.91,22.15 750.00,23.00 750.00,23.00
             739.53,23.02 741.66,25.35 735.00,24.83
             731.03,24.51 728.42,23.60 724.17,24.22
             724.17,24.22 718.91,25.16 718.91,25.16
             715.28,25.30 712.69,24.01 710.00,27.00
             701.00,24.81 699.34,27.58 695.00,26.24
             691.91,25.28 689.33,22.38 683.00,20.09
             683.00,20.09 648.00,10.53 648.00,10.53
             635.91,7.46 623.56,3.58 611.00,3.04
             599.30,2.53 588.36,6.62 577.00,8.74
             577.00,8.74 546.00,15.37 546.00,15.37
             546.00,15.37 530.00,19.58 530.00,19.58
             530.00,19.58 502.00,25.00 502.00,25.00 Z
           M 755.00,30.00
           C 754.36,32.77 753.44,36.05 756.31,37.98
             758.01,39.12 761.01,38.99 763.00,39.00
             778.11,39.10 772.51,37.88 779.09,37.11
             786.11,36.30 794.03,37.82 799.00,32.00
             806.03,35.92 814.37,33.04 822.00,33.00
             829.21,32.97 830.64,33.32 838.00,32.00
             842.46,35.28 857.71,35.14 864.00,36.00
             884.52,38.81 899.03,44.83 916.67,55.43
             921.93,58.59 930.94,63.04 933.00,68.91
             933.00,68.91 945.00,68.91 945.00,68.91
             945.00,68.91 964.00,66.04 964.00,66.04
             972.22,65.72 982.15,69.29 990.00,71.84
             1008.76,77.92 1017.44,85.60 1033.45,96.03
             1033.45,96.03 1062.71,113.71 1062.71,113.71
             1062.71,113.71 1096.67,135.46 1096.67,135.46
             1096.67,135.46 1110.17,144.98 1110.17,144.98
             1110.17,144.98 1119.72,149.22 1119.72,149.22
             1125.09,151.59 1130.09,155.33 1136.00,156.00
             1138.80,160.79 1142.03,160.74 1147.00,162.34
             1147.00,162.34 1165.58,169.61 1165.58,169.61
             1184.87,178.54 1197.34,184.23 1214.97,196.58
             1214.97,196.58 1232.00,212.00 1232.00,212.00
             1232.00,212.00 1240.07,227.17 1240.07,227.17
             1241.71,231.39 1242.65,239.44 1245.03,242.32
             1245.03,242.32 1258.91,252.05 1258.91,252.05
             1258.91,252.05 1271.46,263.04 1271.46,263.04
             1271.46,263.04 1285.89,271.97 1285.89,271.97
             1285.89,271.97 1297.33,283.43 1297.33,283.43
             1297.33,283.43 1302.58,285.74 1302.58,285.74
             1308.99,288.75 1312.75,291.39 1318.00,296.13
             1329.35,306.36 1338.46,320.05 1347.05,332.62
             1364.10,357.57 1382.06,392.23 1390.98,421.00
             1393.57,429.36 1394.69,437.35 1395.72,446.00
             1395.72,446.00 1396.38,454.00 1396.38,454.00
             1397.57,460.01 1400.48,465.78 1400.90,472.00
             1401.58,481.90 1395.69,486.45 1395.44,490.02
             1395.17,494.06 1398.74,494.35 1400.52,499.05
             1403.82,507.78 1402.17,517.61 1413.00,524.00
             1413.00,524.00 1427.72,552.28 1427.72,552.28
             1439.52,579.40 1444.39,592.18 1448.28,622.00
             1448.28,622.00 1450.00,638.00 1450.00,638.00
             1450.00,638.00 1450.00,661.00 1450.00,661.00
             1450.00,661.00 1454.72,705.00 1454.72,705.00
             1454.72,705.00 1456.09,729.00 1456.09,729.00
             1456.09,729.00 1457.00,739.00 1457.00,739.00
             1457.11,748.47 1456.68,758.75 1454.50,768.00
             1454.50,768.00 1451.65,778.00 1451.65,778.00
             1448.79,790.12 1445.95,802.24 1439.97,813.35
             1439.97,813.35 1425.06,836.84 1425.06,836.84
             1422.60,840.09 1417.59,843.83 1416.59,846.18
             1416.59,846.18 1410.66,874.00 1410.66,874.00
             1403.42,896.56 1398.22,903.74 1386.85,923.17
             1386.85,923.17 1382.54,931.12 1382.54,931.12
             1382.54,931.12 1346.81,976.58 1346.81,976.58
             1346.81,976.58 1338.92,988.00 1338.92,988.00
             1338.92,988.00 1333.60,994.98 1333.60,994.98
             1330.06,1000.39 1327.01,1006.07 1322.74,1011.01
             1316.20,1018.58 1302.14,1025.50 1292.00,1024.91
             1281.95,1024.32 1270.62,1019.17 1263.69,1011.83
             1260.14,1008.06 1251.93,995.90 1247.84,994.65
             1240.23,992.33 1242.00,1004.28 1243.23,1008.00
             1248.37,1023.56 1247.03,1020.58 1248.09,1036.00
             1248.42,1040.83 1249.74,1043.86 1249.11,1049.00
             1247.89,1058.91 1245.97,1058.87 1243.30,1065.17
             1243.30,1065.17 1238.22,1079.00 1238.22,1079.00
             1234.32,1087.32 1224.85,1100.55 1223.00,1108.00
             1218.00,1110.77 1218.76,1112.41 1215.59,1116.29
             1215.59,1116.29 1208.20,1123.47 1208.20,1123.47
             1205.59,1126.41 1204.57,1129.98 1199.01,1134.74
             1199.01,1134.74 1171.55,1154.50 1171.55,1154.50
             1171.55,1154.50 1160.17,1160.07 1160.17,1160.07
             1160.17,1160.07 1152.61,1165.40 1152.61,1165.40
             1140.87,1171.95 1115.33,1179.98 1102.00,1180.00
             1077.74,1180.04 1073.78,1179.20 1050.00,1174.74
             1045.78,1173.95 1031.01,1169.66 1028.04,1170.64
             1028.04,1170.64 1008.83,1184.39 1008.83,1184.39
             1000.98,1188.41 993.39,1192.85 985.00,1195.65
             985.00,1195.65 967.06,1200.03 967.06,1200.03
             962.38,1201.97 963.01,1205.69 963.00,1210.00
             963.00,1210.00 963.00,1260.00 963.00,1260.00
             963.00,1260.00 963.91,1272.00 963.91,1272.00
             963.91,1272.00 965.00,1294.00 965.00,1294.00
             965.00,1294.00 966.00,1312.00 966.00,1312.00
             941.40,1316.48 914.94,1321.01 891.00,1328.00
             890.93,1319.78 887.34,1300.70 885.60,1292.00
             885.60,1292.00 880.52,1267.00 880.52,1267.00
             875.63,1247.91 864.38,1226.89 852.90,1210.87
             852.90,1210.87 824.50,1176.14 824.50,1176.14
             814.79,1162.83 809.30,1152.14 802.85,1137.00
             798.76,1127.40 794.13,1114.46 794.00,1104.00
             793.96,1099.88 795.70,1085.91 793.40,1083.60
             791.85,1082.04 783.97,1081.20 781.00,1080.25
             773.23,1077.77 765.95,1073.75 759.10,1069.37
             759.10,1069.37 753.29,1064.56 753.29,1064.56
             734.87,1050.95 719.50,1033.07 706.51,1014.21
             689.43,989.43 676.86,961.51 667.35,933.00
             667.35,933.00 660.37,908.00 660.37,908.00
             659.60,904.93 658.87,900.33 655.66,898.87
             651.82,897.13 648.57,900.55 645.58,902.39
             645.58,902.39 622.44,913.99 622.44,913.99
             622.44,913.99 594.00,926.31 594.00,926.31
             594.00,926.31 585.72,930.86 585.72,930.86
             571.00,938.25 551.59,944.80 535.00,945.00
             528.48,945.07 519.13,945.43 513.00,943.96
             513.00,943.96 489.00,934.75 489.00,934.75
             465.09,927.08 439.71,920.28 422.25,900.93
             412.93,890.59 399.29,862.61 390.85,849.71
             380.51,833.91 372.18,831.55 364.69,811.00
             359.58,796.95 358.92,782.71 357.91,768.00
             357.91,768.00 357.01,759.00 357.01,759.00
             356.88,754.50 356.40,738.22 353.49,735.60
             351.41,733.72 338.56,733.22 335.00,732.84
             335.00,732.84 293.00,725.58 293.00,725.58
             268.52,720.17 229.09,709.26 206.00,700.34
             206.00,700.34 160.00,680.69 160.00,680.69
             160.00,680.69 143.42,672.09 143.42,672.09
             138.14,668.08 137.14,664.91 129.55,659.97
             118.65,652.90 97.11,640.28 89.26,631.01
             89.26,631.01 79.85,617.88 79.85,617.88
             79.85,617.88 68.25,604.98 68.25,604.98
             68.25,604.98 51.21,584.85 51.21,584.85
             47.55,580.59 43.56,572.69 39.00,570.00
             37.37,564.31 32.83,559.89 30.05,554.70
             25.48,546.14 21.97,536.51 20.00,527.00
             18.60,520.22 15.76,496.46 16.04,490.00
             16.04,490.00 18.99,462.00 18.99,462.00
             18.71,450.66 12.10,444.47 11.48,436.00
             11.48,436.00 11.48,420.00 11.48,420.00
             11.48,420.00 16.90,396.00 16.90,396.00
             17.35,389.40 13.39,382.95 13.04,374.00
             12.72,365.80 16.82,352.92 21.45,346.15
             21.45,346.15 27.00,339.00 27.00,339.00
             33.64,337.91 35.61,332.86 37.80,327.42
             40.49,320.75 48.55,303.41 55.18,300.51
             57.32,299.57 58.80,299.84 61.00,300.00
             62.96,294.87 68.74,289.68 67.00,284.00
             71.34,281.97 72.56,278.98 76.00,275.58
             76.00,275.58 85.94,265.83 85.94,265.83
             85.94,265.83 97.82,243.96 97.82,243.96
             100.29,238.58 99.27,232.72 103.45,228.22
             110.90,220.23 122.02,220.00 131.99,220.00
             131.93,216.84 131.30,212.97 131.99,210.00
             133.38,204.02 139.12,198.44 142.53,193.08
             142.53,193.08 150.24,180.43 150.24,180.43
             150.24,180.43 159.46,168.71 159.46,168.71
             159.46,168.71 163.04,165.45 163.04,165.45
             163.04,165.45 167.25,160.25 167.25,160.25
             167.25,160.25 171.55,156.55 171.55,156.55
             171.55,156.55 176.13,151.02 176.13,151.02
             179.89,146.95 187.39,142.32 190.00,138.00
             190.00,138.00 222.00,121.00 222.00,121.00
             222.00,121.00 222.00,118.00 222.00,118.00
             222.00,118.00 248.43,102.56 248.43,102.56
             254.60,99.06 268.15,92.75 272.66,88.52
             272.66,88.52 281.95,79.00 281.95,79.00
             289.64,69.68 285.40,71.29 297.27,63.67
             313.76,53.10 330.48,49.08 349.00,44.08
             369.61,38.53 390.69,34.40 412.00,32.91
             412.00,32.91 422.00,32.00 422.00,32.00
             422.00,32.00 474.00,32.00 474.00,32.00
             476.56,32.00 487.61,32.60 489.41,33.59
             490.68,34.30 490.56,34.94 491.00,36.00
             491.00,36.00 501.00,33.00 501.00,33.00
             512.84,34.86 523.55,28.94 535.00,27.30
             540.78,26.47 545.56,28.72 549.00,23.00
             549.00,23.00 575.00,17.47 575.00,17.47
             580.63,16.63 582.12,18.24 585.83,17.47
             595.29,15.61 597.21,9.75 612.00,11.17
             623.87,12.30 663.83,22.90 676.00,27.00
             686.94,30.70 687.23,33.56 692.00,34.60
             695.73,35.42 705.53,33.41 710.00,33.09
             710.00,33.09 738.00,31.00 738.00,31.00
             745.24,30.99 747.66,31.31 755.00,30.00 Z" />
</svg>
