<?xml version="1.0" encoding="UTF-8" standalone="no"?>
<!DOCTYPE svg PUBLIC "-//W3C//DTD SVG 20010904//EN"
              "http://www.w3.org/TR/2001/REC-SVG-20010904/DTD/svg10.dtd">

<svg xmlns="http://www.w3.org/2000/svg"
     width="4.44444in" height="4.06667in"
     viewBox="0 0 400 366">
  <path id="Selection"
        fill="none" stroke="black" stroke-width="1"
        d="M 95.00,202.00
           C 95.42,207.18 96.29,218.53 97.79,223.00
             99.40,227.79 102.73,230.83 105.46,235.00
             108.31,239.37 110.80,244.95 114.47,248.67
             119.75,254.03 136.47,259.90 144.00,260.00
             161.23,260.22 164.56,253.12 179.00,249.00
             181.72,266.58 197.06,295.02 216.00,298.00
             214.30,317.72 225.84,323.31 234.55,338.00
             239.29,345.99 241.25,355.81 242.00,365.00
             242.00,365.00 265.00,362.00 265.00,362.00
             265.00,362.00 263.42,344.00 263.42,344.00
             263.42,344.00 264.02,333.27 264.02,333.27
             264.02,333.27 272.71,328.18 272.71,328.18
             272.71,328.18 281.00,325.00 281.00,325.00
             281.00,325.00 281.00,322.00 281.00,322.00
             281.88,322.59 281.63,322.83 283.32,323.36
             283.32,323.36 302.00,324.91 302.00,324.91
             319.42,323.84 338.19,308.20 341.62,291.00
             342.66,285.79 341.12,280.28 341.00,275.00
             343.15,277.08 345.27,279.36 348.00,280.69
             358.84,285.96 363.71,277.24 369.24,270.00
             369.24,270.00 378.95,257.00 378.95,257.00
             385.67,246.46 384.46,243.26 388.63,234.04
             388.63,234.04 393.73,225.96 393.73,225.96
             397.30,219.22 399.16,210.60 398.99,203.00
             398.99,203.00 398.09,194.00 398.09,194.00
             398.09,194.00 396.83,173.00 396.83,173.00
             396.83,173.00 394.98,161.00 394.98,161.00
             394.98,161.00 394.98,173.00 394.98,173.00
             394.98,173.00 394.00,189.00 394.00,189.00
             394.00,189.00 396.00,188.00 396.00,188.00
             396.26,200.00 399.17,207.88 393.79,220.00
             392.18,223.63 387.74,228.93 384.84,231.68
             383.19,233.24 380.39,234.93 379.81,237.18
             379.30,239.13 380.60,241.94 380.86,244.00
             381.81,251.59 370.61,262.24 367.00,269.00
             367.00,269.00 366.00,264.00 366.00,264.00
             362.32,266.32 361.50,269.07 360.00,273.00
             360.00,273.00 363.00,274.00 363.00,274.00
             359.48,277.31 356.27,280.97 351.00,278.98
             345.89,277.04 342.74,270.26 339.89,272.88
             337.70,275.06 340.40,283.36 339.89,288.00
             338.77,295.71 331.70,305.69 325.99,310.70
             320.75,315.30 310.94,321.58 304.00,322.74
             297.32,323.86 290.54,321.26 284.00,320.51
             278.98,319.93 273.54,324.00 269.00,326.22
             266.93,327.24 264.28,328.24 263.02,330.27
             261.79,332.26 262.00,335.70 262.00,338.00
             261.98,346.71 261.84,351.21 263.00,360.00
             263.00,360.00 244.00,363.00 244.00,363.00
             243.12,352.21 240.70,342.27 234.94,333.00
             234.94,333.00 221.98,315.00 221.98,315.00
             220.64,312.43 218.83,307.84 218.33,305.00
             217.93,302.76 218.23,299.30 216.98,297.51
             216.02,296.14 210.15,293.34 208.00,291.75
             202.25,287.50 198.70,283.76 194.49,278.00
             184.00,263.65 184.95,256.63 179.00,245.00
             179.00,245.00 175.00,247.00 175.00,247.00
             175.00,247.00 177.00,243.00 177.00,243.00
             174.07,244.51 173.81,244.70 174.00,248.00
             174.00,248.00 172.00,244.00 172.00,244.00
             161.67,244.52 161.07,250.81 154.28,251.73
             148.71,252.49 137.03,245.59 132.00,243.00
             133.12,249.55 139.09,251.23 145.00,252.38
             147.55,252.88 150.85,252.47 152.00,255.00
             152.00,255.00 160.00,254.00 160.00,254.00
             150.17,259.04 146.48,258.38 136.00,257.00
             136.00,257.00 139.00,256.00 139.00,256.00
             138.35,252.19 138.25,252.08 135.00,250.00
             135.00,250.00 131.00,255.00 131.00,255.00
             131.00,255.00 133.00,253.00 133.00,253.00
             133.00,253.00 128.00,254.00 128.00,254.00
             128.00,254.00 118.22,244.70 118.22,244.70
             118.22,244.70 105.94,226.65 105.94,226.65
             105.94,226.65 101.00,225.00 101.00,225.00
             101.00,225.00 102.00,220.00 102.00,220.00
             102.00,220.00 101.00,223.00 101.00,223.00
             98.97,218.69 98.27,215.77 98.04,211.00
             97.86,207.28 98.23,202.24 94.72,199.79
             92.31,198.10 89.68,199.22 87.00,199.08
             81.61,198.80 72.77,196.83 69.00,193.00
             62.05,193.86 56.23,191.07 50.00,188.23
             35.96,181.83 29.16,176.70 19.00,165.00
             19.00,165.00 26.00,168.00 26.00,168.00
             26.00,168.00 17.00,160.00 17.00,160.00
             17.00,160.00 18.00,164.00 18.00,164.00
             12.13,156.77 6.49,150.47 5.00,141.00
             5.00,141.00 10.00,145.00 10.00,145.00
             10.00,145.00 15.00,147.00 15.00,147.00
             15.00,147.00 8.84,136.96 8.84,136.96
             8.84,136.96 7.00,126.00 7.00,126.00
             10.71,123.91 10.66,123.14 11.00,119.00
             11.00,119.00 7.00,126.00 7.00,126.00
             7.00,126.00 3.78,118.00 3.78,118.00
             3.78,118.00 3.78,97.00 3.78,97.00
             10.16,97.23 13.90,90.86 19.00,88.00
             15.42,84.95 14.50,86.63 11.00,89.00
             12.82,84.50 13.57,83.89 18.00,82.00
             18.00,82.00 18.00,80.00 18.00,80.00
             18.00,80.00 17.00,80.00 17.00,80.00
             17.00,80.00 22.00,81.00 22.00,81.00
             22.00,81.00 18.00,84.00 18.00,84.00
             27.38,84.87 30.33,80.09 36.00,77.00
             36.00,77.00 35.00,73.00 35.00,73.00
             38.58,72.39 39.19,71.62 39.00,68.00
             39.00,68.00 37.00,72.00 37.00,72.00
             32.31,72.95 29.52,76.64 28.00,81.00
             25.32,79.74 25.52,79.44 23.00,81.00
             23.00,81.00 21.64,76.51 21.64,76.51
             21.64,76.51 29.09,66.14 29.09,66.14
             29.09,66.14 43.04,55.90 43.04,55.90
             43.04,55.90 49.54,53.38 49.54,53.38
             49.54,53.38 58.00,49.00 58.00,49.00
             58.00,49.00 57.00,46.00 57.00,46.00
             57.00,46.00 44.00,52.00 44.00,52.00
             44.00,52.00 54.00,42.00 54.00,42.00
             49.52,41.67 48.74,42.77 45.00,45.00
             50.25,39.77 53.30,36.45 60.00,33.00
             60.00,33.00 53.00,39.00 53.00,39.00
             53.00,39.00 56.00,41.00 56.00,41.00
             56.00,41.00 57.00,38.00 57.00,38.00
             57.00,38.00 59.00,39.00 59.00,39.00
             62.45,35.72 64.17,35.93 68.00,33.68
             68.00,33.68 75.00,29.40 75.00,29.40
             80.32,26.85 94.00,24.05 100.00,24.00
             99.20,22.81 99.26,22.30 97.71,21.59
             92.30,19.16 75.19,24.03 72.00,29.00
             72.00,29.00 69.00,28.00 69.00,28.00
             69.00,28.00 61.00,33.00 61.00,33.00
             68.73,26.47 69.33,27.66 73.96,24.32
             80.22,19.79 76.99,18.78 88.00,14.00
             88.00,14.00 84.00,17.00 84.00,17.00
             84.00,17.00 85.00,20.00 85.00,20.00
             89.14,18.67 92.44,18.33 94.00,14.00
             94.00,14.00 95.00,17.00 95.00,17.00
             95.00,17.00 97.00,15.00 97.00,15.00
             97.00,15.00 102.00,15.00 102.00,15.00
             102.00,15.00 101.00,13.00 101.00,13.00
             111.58,7.40 116.39,9.00 128.00,9.00
             124.34,10.44 122.23,10.57 120.00,14.00
             120.00,14.00 116.00,16.00 116.00,16.00
             116.00,16.00 131.00,11.38 131.00,11.38
             131.00,11.38 139.00,10.74 139.00,10.74
             139.00,10.74 153.00,7.54 153.00,7.54
             153.00,7.54 166.09,3.88 166.09,3.88
             166.09,3.88 187.00,9.00 187.00,9.00
             187.00,9.00 180.00,10.00 180.00,10.00
             182.13,15.88 188.89,14.16 194.00,14.35
             203.84,14.72 202.47,13.21 210.00,12.20
             210.00,12.20 219.00,11.68 219.00,11.68
             222.69,11.08 223.50,10.24 228.00,10.04
             235.77,9.70 241.94,12.19 249.00,15.00
             249.00,15.00 241.04,17.34 241.04,17.34
             241.04,17.34 228.54,24.54 228.54,24.54
             228.54,24.54 227.00,27.00 227.00,27.00
             227.00,27.00 239.00,25.00 239.00,25.00
             239.00,25.00 238.00,21.21 238.00,21.21
             238.00,21.21 256.00,21.21 256.00,21.21
             259.68,20.96 261.09,18.62 266.00,19.54
             277.08,21.63 289.16,33.85 300.00,38.00
             300.00,38.00 289.00,40.00 289.00,40.00
             289.00,40.00 289.00,42.00 289.00,42.00
             289.00,42.00 290.00,43.00 290.00,43.00
             290.00,43.00 296.00,41.00 296.00,41.00
             301.33,45.11 302.98,42.47 309.00,44.05
             315.42,45.74 321.36,48.77 327.00,52.20
             331.83,55.15 336.76,57.70 335.00,64.00
             340.51,70.65 345.90,69.16 346.00,77.00
             346.00,77.00 351.00,75.00 351.00,75.00
             351.00,75.00 365.67,90.04 365.67,90.04
             365.67,90.04 375.83,107.00 375.83,107.00
             375.83,107.00 380.67,125.00 380.67,125.00
             380.67,125.00 380.67,135.00 380.67,135.00
             380.67,135.00 386.69,147.09 386.69,147.09
             386.69,147.09 393.00,160.00 393.00,160.00
             394.59,152.00 385.17,143.40 383.87,138.00
             383.87,138.00 382.58,122.00 382.58,122.00
             380.32,109.58 375.73,101.61 369.35,91.00
             367.83,88.47 366.54,85.62 364.59,83.42
             360.00,78.25 348.63,72.74 341.57,65.12
             337.92,61.19 339.10,58.48 333.82,53.90
             325.07,46.33 314.09,44.72 305.00,39.23
             305.00,39.23 275.09,20.35 275.09,20.35
             265.30,15.57 261.96,18.14 256.00,16.50
             251.09,15.16 248.93,11.52 238.00,8.90
             231.48,7.34 227.55,8.43 221.42,8.14
             221.42,8.14 214.00,7.06 214.00,7.06
             214.00,7.06 199.00,7.06 199.00,7.06
             199.00,7.06 187.34,7.06 187.34,7.06
             179.47,5.66 171.34,1.19 163.00,1.35
             155.81,1.49 142.11,8.36 133.00,7.68
             133.00,7.68 113.00,7.00 113.00,7.00
             105.58,7.09 86.20,10.52 80.10,14.36
             76.00,16.96 76.26,19.39 70.99,22.65
             62.88,27.67 54.07,31.51 47.00,38.09
             39.35,45.21 39.25,48.29 35.39,52.82
             32.37,56.37 28.91,57.31 26.14,61.10
             23.10,65.28 24.82,67.11 20.95,71.68
             20.95,71.68 11.59,82.42 11.59,82.42
             11.59,82.42 7.22,88.96 7.22,88.96
             5.62,91.12 2.63,93.68 1.93,96.09
             1.93,96.09 1.93,107.00 1.93,107.00
             1.93,107.00 1.11,117.00 1.11,117.00
             1.11,117.00 2.57,127.00 2.57,127.00
             2.57,127.00 2.57,135.00 2.57,135.00
             2.62,138.92 3.13,145.46 4.39,149.00
             6.61,155.26 11.62,160.99 15.87,166.00
             15.87,166.00 23.17,174.70 23.17,174.70
             35.22,186.25 54.98,193.85 71.00,197.87
             79.43,199.99 86.18,201.92 95.00,202.00 Z
           M 168.00,11.00
           C 168.00,11.00 173.00,11.00 173.00,11.00
             170.99,8.06 170.01,8.06 168.00,11.00 Z
           M 192.00,9.00
           C 192.00,9.00 192.00,10.00 192.00,10.00
             192.00,10.00 191.00,9.00 191.00,9.00
             191.00,9.00 192.00,9.00 192.00,9.00 Z
           M 210.00,9.00
           C 204.33,12.74 200.24,11.28 194.00,11.00
             198.15,7.96 199.43,9.67 204.00,9.66
             204.00,9.66 210.00,9.00 210.00,9.00 Z
           M 214.00,9.00
           C 214.00,9.00 214.00,10.00 214.00,10.00
             214.00,10.00 213.00,9.00 213.00,9.00
             213.00,9.00 214.00,9.00 214.00,9.00 Z
           M 108.00,16.00
           C 108.00,16.00 113.00,16.00 113.00,16.00
             113.00,16.00 113.00,14.00 113.00,14.00
             113.00,14.00 112.00,13.00 112.00,13.00
             112.00,13.00 108.00,16.00 108.00,16.00 Z
           M 153.00,14.00
           C 153.00,14.00 152.00,18.00 152.00,18.00
             157.77,18.76 163.65,18.88 168.00,23.00
             168.00,23.00 187.00,19.00 187.00,19.00
             185.13,13.83 179.83,14.92 175.00,14.74
             175.00,14.74 153.00,14.00 153.00,14.00 Z
           M 106.00,24.00
           C 115.66,23.57 119.18,21.30 127.00,20.21
             130.60,19.70 133.37,20.93 136.00,18.00
             136.00,18.00 145.00,18.00 145.00,18.00
             143.48,16.50 143.20,15.89 140.96,15.31
             137.53,14.43 119.56,17.73 114.75,18.47
             110.23,19.17 107.56,19.41 106.00,24.00 Z
           M 171.00,17.00
           C 171.00,17.00 171.00,18.00 171.00,18.00
             171.00,18.00 170.00,17.00 170.00,17.00
             170.00,17.00 171.00,17.00 171.00,17.00 Z
           M 184.00,17.00
           C 184.00,17.00 184.00,18.00 184.00,18.00
             184.00,18.00 183.00,17.00 183.00,17.00
             183.00,17.00 184.00,17.00 184.00,17.00 Z
           M 186.00,25.00
           C 186.00,25.00 194.00,24.00 194.00,24.00
             194.00,24.00 193.00,21.00 193.00,21.00
             202.76,21.03 205.08,23.29 207.00,18.00
             203.02,18.01 201.32,17.55 198.00,20.00
             192.84,17.76 187.90,19.54 186.00,25.00 Z
           M 98.00,22.00
           C 98.00,22.00 98.00,23.00 98.00,23.00
             98.00,23.00 97.00,22.00 97.00,22.00
             97.00,22.00 98.00,22.00 98.00,22.00 Z
           M 221.00,34.00
           C 221.00,34.00 223.00,33.00 223.00,33.00
             223.00,33.00 219.00,36.00 219.00,36.00
             219.00,36.00 216.00,34.00 216.00,34.00
             216.00,34.00 223.00,42.00 223.00,42.00
             223.00,42.00 217.00,44.00 217.00,44.00
             217.00,44.00 215.00,51.00 215.00,51.00
             215.00,51.00 211.00,50.00 211.00,50.00
             211.00,50.00 209.00,54.00 209.00,54.00
             209.00,54.00 208.00,61.00 208.00,61.00
             208.00,61.00 206.00,59.00 206.00,59.00
             206.00,59.00 205.00,60.00 205.00,60.00
             205.00,60.00 207.00,63.00 207.00,63.00
             203.66,63.39 202.96,63.18 201.00,66.00
             201.00,66.00 214.00,59.00 214.00,59.00
             214.00,59.00 212.00,55.00 212.00,55.00
             212.00,55.00 215.00,56.00 215.00,56.00
             217.16,50.47 220.80,44.94 227.00,44.00
             227.00,44.00 227.00,42.00 227.00,42.00
             227.00,42.00 240.00,40.00 240.00,40.00
             233.97,31.99 228.71,44.28 223.00,37.00
             223.00,37.00 225.00,31.00 225.00,31.00
             225.00,31.00 221.00,34.00 221.00,34.00 Z
           M 174.00,32.00
           C 173.74,37.68 172.32,38.80 175.00,44.00
             175.00,44.00 171.00,45.00 171.00,45.00
             171.00,45.00 177.00,46.00 177.00,46.00
             177.00,46.00 176.00,32.00 176.00,32.00
             176.00,32.00 174.00,32.00 174.00,32.00 Z
           M 137.00,35.00
           C 137.00,35.00 134.00,44.00 134.00,44.00
             134.00,44.00 138.00,45.00 138.00,45.00
             138.00,45.00 138.00,51.00 138.00,51.00
             138.00,51.00 141.00,50.00 141.00,50.00
             141.00,50.00 143.00,52.00 143.00,52.00
             143.00,52.00 142.00,55.00 142.00,55.00
             142.00,55.00 149.00,62.00 149.00,62.00
             146.76,67.84 146.71,72.73 142.00,77.00
             142.00,77.00 143.00,80.00 143.00,80.00
             143.00,80.00 140.00,80.00 140.00,80.00
             140.00,80.00 141.00,85.00 141.00,85.00
             141.00,85.00 143.00,83.00 143.00,83.00
             143.00,83.00 144.00,88.00 144.00,88.00
             144.00,88.00 141.00,86.00 141.00,86.00
             141.00,86.00 147.00,91.00 147.00,91.00
             147.00,91.00 145.90,80.17 145.90,80.17
             145.90,80.17 147.00,71.00 147.00,71.00
             147.00,71.00 152.27,61.09 152.27,61.09
             152.27,61.09 161.00,54.00 161.00,54.00
             161.00,54.00 160.00,50.00 160.00,50.00
             160.00,50.00 158.00,50.00 158.00,50.00
             158.00,50.00 153.00,57.00 153.00,57.00
             144.58,48.38 138.88,48.51 139.00,35.00
             139.00,35.00 137.00,35.00 137.00,35.00 Z
           M 223.00,36.00
           C 223.00,36.00 223.00,37.00 223.00,37.00
             223.00,37.00 222.00,36.00 222.00,36.00
             222.00,36.00 223.00,36.00 223.00,36.00 Z
           M 91.00,39.00
           C 91.00,39.00 97.00,39.00 97.00,39.00
             94.86,35.84 93.14,35.84 91.00,39.00 Z
           M 238.00,38.00
           C 238.00,38.00 238.00,39.00 238.00,39.00
             238.00,39.00 237.00,38.00 237.00,38.00
             237.00,38.00 238.00,38.00 238.00,38.00 Z
           M 78.00,38.00
           C 78.00,38.00 79.00,44.00 79.00,44.00
             79.00,44.00 77.00,43.00 77.00,43.00
             78.53,48.25 79.85,49.09 81.84,53.42
             81.84,53.42 83.93,59.21 83.93,59.21
             85.57,61.21 86.41,59.35 87.00,58.00
             87.00,58.00 85.51,57.17 85.51,57.17
             85.51,57.17 84.67,52.00 84.67,52.00
             84.67,52.00 82.00,41.00 82.00,41.00
             82.00,41.00 79.00,41.00 79.00,41.00
             79.00,41.00 85.00,41.00 85.00,41.00
             83.48,37.34 81.66,38.05 78.00,38.00 Z
           M 229.00,40.00
           C 229.00,40.00 229.00,41.00 229.00,41.00
             229.00,41.00 228.00,40.00 228.00,40.00
             228.00,40.00 229.00,40.00 229.00,40.00 Z
           M 270.00,39.00
           C 266.80,43.11 265.66,43.70 267.00,49.00
             267.00,49.00 264.00,54.00 264.00,54.00
             264.00,54.00 260.00,55.00 260.00,55.00
             260.00,55.00 263.00,54.00 263.00,54.00
             263.00,54.00 265.00,55.00 265.00,55.00
             265.00,55.00 269.00,57.00 269.00,57.00
             269.00,57.00 270.00,50.00 270.00,50.00
             270.00,50.00 268.00,45.00 268.00,45.00
             268.00,45.00 272.00,43.00 272.00,43.00
             272.00,43.00 270.00,39.00 270.00,39.00 Z
           M 221.00,44.00
           C 221.00,44.00 221.00,45.00 221.00,45.00
             221.00,45.00 220.00,44.00 220.00,44.00
             220.00,44.00 221.00,44.00 221.00,44.00 Z
           M 219.00,45.00
           C 219.00,45.00 219.00,46.00 219.00,46.00
             219.00,46.00 218.00,45.00 218.00,45.00
             218.00,45.00 219.00,45.00 219.00,45.00 Z
           M 43.00,47.00
           C 43.00,47.00 43.00,48.00 43.00,48.00
             43.00,48.00 42.00,47.00 42.00,47.00
             42.00,47.00 43.00,47.00 43.00,47.00 Z
           M 268.00,49.00
           C 268.00,49.00 268.00,50.00 268.00,50.00
             268.00,50.00 267.00,49.00 267.00,49.00
             267.00,49.00 268.00,49.00 268.00,49.00 Z
           M 213.00,51.00
           C 213.00,51.00 213.00,52.00 213.00,52.00
             213.00,52.00 212.00,51.00 212.00,51.00
             212.00,51.00 213.00,51.00 213.00,51.00 Z
           M 212.00,52.00
           C 212.00,52.00 212.00,53.00 212.00,53.00
             212.00,53.00 211.00,52.00 211.00,52.00
             211.00,52.00 212.00,52.00 212.00,52.00 Z
           M 249.00,52.00
           C 249.00,52.00 248.00,53.00 248.00,53.00
             248.00,53.00 251.00,63.00 251.00,63.00
             251.00,63.00 248.00,61.00 248.00,61.00
             248.00,61.00 250.00,64.00 250.00,64.00
             250.00,64.00 245.00,64.00 245.00,64.00
             245.00,64.00 242.00,69.00 242.00,69.00
             250.51,69.89 252.13,59.43 257.00,55.00
             257.00,55.00 253.00,55.00 253.00,55.00
             253.00,55.00 249.00,52.00 249.00,52.00 Z
           M 250.00,54.00
           C 250.00,54.00 250.00,55.00 250.00,55.00
             250.00,55.00 249.00,54.00 249.00,54.00
             249.00,54.00 250.00,54.00 250.00,54.00 Z
           M 299.00,53.00
           C 299.00,53.00 298.00,56.00 298.00,56.00
             298.00,56.00 301.00,56.00 301.00,56.00
             301.00,56.00 299.00,53.00 299.00,53.00 Z
           M 149.00,56.00
           C 149.00,56.00 152.00,57.00 152.00,57.00
             152.00,57.00 151.00,61.00 151.00,61.00
             151.00,61.00 149.00,56.00 149.00,56.00 Z
           M 252.00,56.00
           C 252.00,56.00 252.00,57.00 252.00,57.00
             252.00,57.00 251.00,56.00 251.00,56.00
             251.00,56.00 252.00,56.00 252.00,56.00 Z
           M 89.00,56.00
           C 89.00,56.00 94.00,60.00 94.00,60.00
             94.00,60.00 94.00,58.00 94.00,58.00
             97.83,60.73 99.06,62.29 104.00,62.00
             105.57,64.36 108.22,66.79 111.00,65.00
             111.00,65.00 121.00,68.00 121.00,68.00
             116.92,63.49 115.22,64.31 110.00,62.13
             99.47,57.72 101.02,56.01 89.00,56.00 Z
           M 300.00,58.00
           C 300.00,58.00 299.00,59.00 299.00,59.00
             299.00,59.00 302.00,66.00 302.00,66.00
             302.00,66.00 300.00,65.00 300.00,65.00
             301.85,68.60 302.13,68.83 306.00,70.00
             306.00,70.00 302.00,58.00 302.00,58.00
             302.00,58.00 300.00,58.00 300.00,58.00 Z
           M 31.00,60.00
           C 31.00,60.00 31.00,61.00 31.00,61.00
             31.00,61.00 30.00,60.00 30.00,60.00
             30.00,60.00 31.00,60.00 31.00,60.00 Z
           M 103.00,61.00
           C 103.00,61.00 103.00,62.00 103.00,62.00
             103.00,62.00 102.00,61.00 102.00,61.00
             102.00,61.00 103.00,61.00 103.00,61.00 Z
           M 73.00,61.00
           C 73.94,64.82 74.56,66.00 78.00,68.00
             78.00,68.00 75.00,70.00 75.00,70.00
             75.00,70.00 76.00,73.00 76.00,73.00
             76.00,73.00 73.00,77.00 73.00,77.00
             73.00,77.00 77.00,77.00 77.00,77.00
             77.00,77.00 83.00,61.00 83.00,61.00
             83.00,61.00 80.00,66.00 80.00,66.00
             80.00,66.00 73.00,61.00 73.00,61.00 Z
           M 191.00,73.00
           C 191.00,73.00 195.00,68.00 195.00,68.00
             195.00,68.00 199.00,68.00 199.00,68.00
             199.00,68.00 199.00,66.00 199.00,66.00
             193.80,65.83 192.26,68.24 191.00,73.00 Z
           M 267.00,71.00
           C 267.00,71.00 271.00,72.00 271.00,72.00
             271.00,72.00 271.00,69.00 271.00,69.00
             271.00,69.00 274.00,70.00 274.00,70.00
             271.38,66.25 269.11,67.61 267.00,71.00 Z
           M 239.00,69.00
           C 239.00,69.00 238.00,74.00 238.00,74.00
             238.00,74.00 241.00,69.00 241.00,69.00
             241.00,69.00 239.00,69.00 239.00,69.00 Z
           M 264.00,71.00
           C 264.00,71.00 263.00,75.00 263.00,75.00
             263.00,75.00 265.00,73.00 265.00,73.00
             265.00,73.00 268.00,74.00 268.00,74.00
             268.00,74.00 268.00,72.00 268.00,72.00
             268.00,72.00 266.00,71.00 266.00,71.00
             266.00,71.00 264.00,71.00 264.00,71.00 Z
           M 334.00,73.00
           C 334.00,73.00 339.00,75.00 339.00,75.00
             339.00,75.00 339.00,72.00 339.00,72.00
             339.00,72.00 334.00,73.00 334.00,73.00 Z
           M 234.00,73.00
           C 231.09,77.55 230.01,76.51 225.00,78.00
             225.00,78.00 225.00,83.00 225.00,83.00
             225.00,83.00 229.00,85.00 229.00,85.00
             229.00,85.00 226.00,84.00 226.00,84.00
             226.00,84.00 229.00,87.00 229.00,87.00
             228.80,90.75 228.76,91.86 232.00,94.00
             232.00,94.00 231.00,82.00 231.00,82.00
             235.43,80.42 236.04,77.32 237.00,73.00
             237.00,73.00 234.00,73.00 234.00,73.00 Z
           M 90.00,77.00
           C 90.00,77.00 96.00,78.00 96.00,78.00
             96.00,78.00 95.00,74.00 95.00,74.00
             95.00,74.00 90.00,77.00 90.00,77.00 Z
           M 144.00,78.00
           C 144.00,78.00 144.00,79.00 144.00,79.00
             144.00,79.00 143.00,78.00 143.00,78.00
             143.00,78.00 144.00,78.00 144.00,78.00 Z
           M 171.00,77.00
           C 171.00,77.00 171.00,83.00 171.00,83.00
             171.00,83.00 174.00,82.00 174.00,82.00
             174.00,82.00 175.00,89.00 175.00,89.00
             175.00,89.00 179.00,90.00 179.00,90.00
             179.98,84.59 177.80,84.82 182.00,81.00
             182.00,81.00 181.00,85.00 181.00,85.00
             184.65,82.16 185.25,81.59 186.00,77.00
             186.00,77.00 183.00,81.00 183.00,81.00
             183.00,81.00 176.00,83.00 176.00,83.00
             174.64,79.24 174.41,79.07 171.00,77.00 Z
           M 234.00,79.00
           C 234.00,79.00 234.00,80.00 234.00,80.00
             234.00,80.00 233.00,79.00 233.00,79.00
             233.00,79.00 234.00,79.00 234.00,79.00 Z
           M 50.00,82.00
           C 50.00,82.00 53.00,81.00 53.00,81.00
             53.00,81.00 56.00,83.00 56.00,83.00
             54.10,79.66 52.56,78.34 50.00,82.00 Z
           M 219.00,84.00
           C 219.00,84.00 217.00,91.00 217.00,91.00
             212.65,92.01 213.73,94.21 213.92,98.00
             214.45,108.60 213.87,104.40 216.00,115.00
             216.00,115.00 214.00,109.00 214.00,109.00
             214.00,109.00 212.00,109.00 212.00,109.00
             212.00,109.00 214.00,117.00 214.00,117.00
             214.00,117.00 217.00,115.00 217.00,115.00
             217.00,115.00 216.00,119.00 216.00,119.00
             216.00,119.00 218.00,123.00 218.00,123.00
             218.00,123.00 230.00,128.00 230.00,128.00
             230.00,128.00 229.00,126.00 229.00,126.00
             229.00,126.00 230.00,126.00 230.00,126.00
             230.00,126.00 232.00,128.00 232.00,128.00
             238.52,124.36 241.39,126.59 248.00,128.00
             248.00,128.00 249.00,125.00 249.00,125.00
             240.80,122.67 235.38,125.33 230.00,124.10
             221.49,122.15 216.66,110.92 215.83,103.00
             214.71,92.22 223.65,89.86 219.00,84.00 Z
           M 135.00,91.00
           C 135.00,91.00 118.00,88.00 118.00,88.00
             122.96,95.89 130.10,88.42 134.00,94.00
             134.00,94.00 131.00,92.00 131.00,92.00
             131.00,92.00 132.00,97.00 132.00,97.00
             136.27,94.51 137.73,90.29 140.00,86.00
             136.51,87.37 136.52,87.60 135.00,91.00 Z
           M 34.00,92.00
           C 34.00,92.00 34.69,103.96 34.69,103.96
             34.69,103.96 33.00,112.00 33.00,112.00
             33.00,112.00 44.00,115.00 44.00,115.00
             44.00,115.00 48.00,120.00 48.00,120.00
             48.00,120.00 47.00,117.00 47.00,117.00
             47.00,117.00 52.00,118.00 52.00,118.00
             52.00,118.00 38.74,107.96 38.74,107.96
             38.74,107.96 36.00,92.00 36.00,92.00
             36.00,92.00 34.00,92.00 34.00,92.00 Z
           M 100.00,92.00
           C 100.00,92.00 100.00,101.00 100.00,101.00
             100.00,101.00 95.00,97.00 95.00,97.00
             95.00,97.00 99.00,96.00 99.00,96.00
             95.17,93.77 92.44,94.25 90.00,98.00
             98.17,98.28 98.46,100.99 101.00,108.00
             101.00,108.00 104.00,93.00 104.00,93.00
             104.00,93.00 100.00,92.00 100.00,92.00 Z
           M 7.00,94.00
           C 7.00,94.00 7.00,95.00 7.00,95.00
             7.00,95.00 6.00,94.00 6.00,94.00
             6.00,94.00 7.00,94.00 7.00,94.00 Z
           M 253.00,94.00
           C 253.95,97.27 254.04,99.09 257.00,101.00
             257.00,101.00 256.00,98.00 256.00,98.00
             256.00,98.00 260.00,99.00 260.00,99.00
             260.00,99.00 258.00,106.00 258.00,106.00
             258.00,106.00 257.00,102.00 257.00,102.00
             255.10,105.52 254.48,112.74 251.00,114.00
             251.00,114.00 249.00,122.00 249.00,122.00
             249.00,122.00 254.00,118.00 254.00,118.00
             254.00,118.00 253.00,115.00 253.00,115.00
             258.79,111.75 260.41,103.58 265.00,97.00
             265.00,97.00 260.00,99.00 260.00,99.00
             260.00,99.00 253.00,94.00 253.00,94.00 Z
           M 340.00,94.00
           C 340.00,94.00 338.00,99.00 338.00,99.00
             338.00,99.00 342.00,99.00 342.00,99.00
             342.00,99.00 342.00,94.00 342.00,94.00
             342.00,94.00 340.00,94.00 340.00,94.00 Z
           M 50.00,95.00
           C 50.00,95.00 50.00,99.00 50.00,99.00
             50.00,99.00 52.00,98.00 52.00,98.00
             52.00,98.00 56.03,111.58 56.03,111.58
             56.03,111.58 54.21,120.00 54.21,120.00
             54.21,120.00 56.00,132.00 56.00,132.00
             56.00,132.00 59.00,131.00 59.00,131.00
             59.00,131.00 60.00,132.00 60.00,132.00
             60.00,132.00 59.00,135.00 59.00,135.00
             59.00,135.00 62.00,133.00 62.00,133.00
             62.00,133.00 71.00,139.00 71.00,139.00
             71.00,139.00 70.00,142.00 70.00,142.00
             71.97,142.80 74.01,144.39 75.00,142.00
             75.00,142.00 77.00,145.00 77.00,145.00
             77.00,145.00 82.00,144.00 82.00,144.00
             80.62,146.47 80.64,146.43 83.00,148.00
             83.00,148.00 82.00,145.00 82.00,145.00
             82.00,145.00 92.00,149.00 92.00,149.00
             92.00,149.00 90.00,150.00 90.00,150.00
             90.00,150.00 97.00,153.00 97.00,153.00
             97.00,153.00 98.00,151.00 98.00,151.00
             99.05,152.10 100.10,153.69 101.85,153.67
             103.29,153.65 104.28,152.05 103.26,150.64
             103.26,150.64 92.00,146.77 92.00,146.77
             83.44,142.97 67.79,135.67 61.02,129.68
             55.43,124.69 53.92,119.30 61.02,115.00
             61.02,115.00 58.00,114.00 58.00,114.00
             58.00,114.00 58.00,109.00 58.00,109.00
             61.43,112.26 64.24,114.34 69.00,115.00
             69.00,115.00 69.00,114.00 69.00,114.00
             69.00,114.00 67.00,114.00 67.00,114.00
             67.00,114.00 72.00,113.00 72.00,113.00
             72.00,113.00 61.18,107.77 61.18,107.77
             61.18,107.77 50.00,95.00 50.00,95.00 Z
           M 86.00,96.00
           C 86.00,96.00 85.00,99.00 85.00,99.00
             85.00,99.00 89.00,96.00 89.00,96.00
             89.00,96.00 86.00,96.00 86.00,96.00 Z
           M 173.00,99.00
           C 173.00,99.00 172.00,116.00 172.00,116.00
             172.00,116.00 169.00,114.00 169.00,114.00
             169.00,114.00 171.00,117.00 171.00,117.00
             171.00,117.00 170.00,121.00 170.00,121.00
             170.00,121.00 168.00,119.00 168.00,119.00
             166.62,122.34 164.07,131.39 165.60,134.72
             167.30,138.45 183.91,141.60 187.00,139.00
             191.02,141.73 192.23,140.38 193.00,136.00
             187.59,136.97 169.42,139.37 167.82,131.95
             167.20,129.06 171.32,123.15 172.53,120.00
             174.65,114.49 175.65,104.86 175.00,99.00
             175.00,99.00 173.00,99.00 173.00,99.00 Z
           M 79.00,102.00
           C 79.00,102.00 74.00,109.00 74.00,109.00
             74.00,109.00 76.00,109.00 76.00,109.00
             76.00,109.00 75.00,116.00 75.00,116.00
             75.00,116.00 71.00,114.00 71.00,114.00
             71.00,114.00 71.00,116.00 71.00,116.00
             71.00,116.00 74.00,121.00 74.00,121.00
             74.00,121.00 78.00,121.00 78.00,121.00
             76.27,111.28 77.89,110.97 81.00,102.00
             81.00,102.00 79.00,102.00 79.00,102.00 Z
           M 338.00,102.00
           C 338.00,102.00 343.00,105.00 343.00,105.00
             343.00,105.00 342.00,102.00 342.00,102.00
             342.00,102.00 338.00,102.00 338.00,102.00 Z
           M 292.00,132.00
           C 292.00,132.00 299.00,131.00 299.00,131.00
             299.00,131.00 294.00,128.00 294.00,128.00
             294.00,128.00 300.00,108.00 300.00,108.00
             294.23,111.24 291.38,125.68 292.00,132.00 Z
           M 73.00,110.00
           C 73.00,110.00 73.00,111.00 73.00,111.00
             73.00,111.00 74.00,110.00 74.00,110.00
             74.00,110.00 73.00,110.00 73.00,110.00 Z
           M 10.00,114.00
           C 10.00,114.00 10.00,118.00 10.00,118.00
             10.00,118.00 14.00,117.00 14.00,117.00
             14.00,117.00 13.00,114.00 13.00,114.00
             13.00,114.00 10.00,114.00 10.00,114.00 Z
           M 322.00,117.00
           C 322.00,117.00 322.00,129.00 322.00,129.00
             322.00,129.00 321.00,127.00 321.00,127.00
             321.00,127.00 320.00,131.00 320.00,131.00
             320.00,131.00 323.00,130.00 323.00,130.00
             323.00,130.00 323.00,135.00 323.00,135.00
             323.00,135.00 325.00,133.00 325.00,133.00
             329.28,136.15 335.95,135.52 339.00,131.00
             339.00,131.00 341.00,131.00 341.00,131.00
             341.00,131.00 341.00,133.00 341.00,133.00
             341.00,133.00 343.00,133.00 343.00,133.00
             345.97,129.70 347.65,128.16 352.00,127.00
             347.11,123.47 346.90,126.39 343.03,128.63
             340.66,130.01 332.40,133.41 329.85,132.64
             321.92,130.27 325.76,122.10 322.00,117.00 Z
           M 124.00,118.00
           C 124.00,118.00 122.00,125.00 122.00,125.00
             122.00,125.00 119.00,126.00 119.00,126.00
             119.22,133.50 113.76,136.03 118.00,140.00
             118.00,140.00 118.00,133.00 118.00,133.00
             118.00,133.00 121.00,140.00 121.00,140.00
             121.00,140.00 120.00,143.00 120.00,143.00
             121.43,142.00 122.16,141.96 122.23,139.86
             122.31,137.79 120.78,136.23 121.53,132.00
             122.39,127.20 126.63,122.47 124.00,118.00 Z
           M 169.00,122.00
           C 169.00,122.00 169.00,123.00 169.00,123.00
             169.00,123.00 168.00,122.00 168.00,122.00
             168.00,122.00 169.00,122.00 169.00,122.00 Z
           M 291.00,121.00
           C 291.00,121.00 291.00,122.00 291.00,122.00
             291.00,122.00 292.00,121.00 292.00,121.00
             292.00,121.00 291.00,121.00 291.00,121.00 Z
           M 168.00,124.00
           C 168.00,124.00 168.00,125.00 168.00,125.00
             168.00,125.00 167.00,124.00 167.00,124.00
             167.00,124.00 168.00,124.00 168.00,124.00 Z
           M 201.00,124.00
           C 201.00,124.00 203.00,126.00 203.00,126.00
             203.00,126.00 205.00,131.00 205.00,131.00
             205.00,131.00 211.00,132.00 211.00,132.00
             211.00,132.00 210.00,127.00 210.00,127.00
             210.00,127.00 201.00,124.00 201.00,124.00 Z
           M 204.00,127.00
           C 204.00,127.00 204.00,128.00 204.00,128.00
             204.00,128.00 203.00,127.00 203.00,127.00
             203.00,127.00 204.00,127.00 204.00,127.00 Z
           M 347.00,127.00
           C 347.00,127.00 347.00,128.00 347.00,128.00
             347.00,128.00 346.00,127.00 346.00,127.00
             346.00,127.00 347.00,127.00 347.00,127.00 Z
           M 358.00,126.00
           C 358.00,126.00 357.00,133.00 357.00,133.00
             360.65,130.93 360.99,130.02 362.00,126.00
             362.00,126.00 358.00,126.00 358.00,126.00 Z
           M 205.00,128.00
           C 205.00,128.00 205.00,129.00 205.00,129.00
             205.00,129.00 204.00,128.00 204.00,128.00
             204.00,128.00 205.00,128.00 205.00,128.00 Z
           M 356.00,128.00
           C 356.00,128.00 356.00,129.00 356.00,129.00
             356.00,129.00 357.00,128.00 357.00,128.00
             357.00,128.00 356.00,128.00 356.00,128.00 Z
           M 290.00,130.00
           C 290.00,130.00 280.34,143.11 280.34,143.11
             280.34,143.11 277.00,153.00 277.00,153.00
             282.04,151.10 291.33,135.33 290.00,130.00 Z
           M 23.00,131.00
           C 23.00,131.00 27.00,134.00 27.00,134.00
             27.00,134.00 23.00,131.00 23.00,131.00 Z
           M 372.00,132.00
           C 372.00,132.00 373.00,146.00 373.00,146.00
             373.00,146.00 372.00,143.00 372.00,143.00
             372.00,143.00 372.00,152.00 372.00,152.00
             372.00,152.00 373.00,147.00 373.00,147.00
             375.12,153.43 376.14,159.30 375.00,166.00
             375.00,166.00 376.00,166.00 376.00,166.00
             376.00,166.00 376.00,164.00 376.00,164.00
             376.00,164.00 377.00,168.00 377.00,168.00
             377.00,168.00 379.00,168.00 379.00,168.00
             379.00,168.00 374.00,132.00 374.00,132.00
             374.00,132.00 372.00,132.00 372.00,132.00 Z
           M 129.00,140.00
           C 129.00,140.00 132.00,141.00 132.00,141.00
             132.00,141.00 136.04,138.42 136.04,138.42
             136.04,138.42 160.00,140.00 160.00,140.00
             154.91,136.70 137.80,135.04 132.11,137.56
             130.33,138.34 130.25,138.76 129.00,140.00 Z
           M 329.00,136.00
           C 329.00,136.00 329.00,138.00 329.00,138.00
             329.00,138.00 333.00,138.00 333.00,138.00
             333.00,138.00 333.00,136.00 333.00,136.00
             333.00,136.00 329.00,136.00 329.00,136.00 Z
           M 7.00,138.00
           C 7.00,138.00 7.00,139.00 7.00,139.00
             7.00,139.00 6.00,138.00 6.00,138.00
             6.00,138.00 7.00,138.00 7.00,138.00 Z
           M 190.00,139.00
           C 190.00,139.00 190.00,140.00 190.00,140.00
             190.00,140.00 189.00,139.00 189.00,139.00
             189.00,139.00 190.00,139.00 190.00,139.00 Z
           M 136.00,139.00
           C 136.00,139.00 142.00,141.00 142.00,141.00
             142.00,141.00 136.00,139.00 136.00,139.00 Z
           M 353.00,140.00
           C 353.00,140.00 363.00,151.00 363.00,151.00
             360.44,144.24 361.17,140.95 353.00,140.00 Z
           M 152.00,141.00
           C 152.00,141.00 152.00,142.00 152.00,142.00
             152.00,142.00 153.00,141.00 153.00,141.00
             153.00,141.00 152.00,141.00 152.00,141.00 Z
           M 154.00,142.00
           C 154.00,142.00 158.00,143.00 158.00,143.00
             158.00,143.00 154.00,142.00 154.00,142.00 Z
           M 106.00,143.00
           C 106.00,143.00 108.00,148.00 108.00,148.00
             108.00,148.00 112.00,147.00 112.00,147.00
             109.86,143.86 109.69,143.83 106.00,143.00 Z
           M 282.00,144.00
           C 282.00,144.00 282.00,145.00 282.00,145.00
             282.00,145.00 281.00,144.00 281.00,144.00
             281.00,144.00 282.00,144.00 282.00,144.00 Z
           M 102.00,152.00
           C 102.00,152.00 102.00,153.00 102.00,153.00
             102.00,153.00 101.00,152.00 101.00,152.00
             101.00,152.00 102.00,152.00 102.00,152.00 Z
           M 271.00,151.00
           C 271.00,151.00 270.00,153.00 270.00,153.00
             270.00,153.00 269.00,153.00 269.00,153.00
             269.00,153.00 272.00,156.00 272.00,156.00
             272.00,156.00 271.00,151.00 271.00,151.00 Z
           M 310.00,151.00
           C 310.00,151.00 310.00,158.00 310.00,158.00
             310.00,158.00 311.00,155.00 311.00,155.00
             312.35,160.20 311.29,161.04 310.00,166.00
             310.00,166.00 307.00,164.00 307.00,164.00
             307.00,164.00 307.00,171.00 307.00,171.00
             307.00,171.00 306.00,169.00 306.00,169.00
             306.00,169.00 306.00,174.00 306.00,174.00
             311.62,168.88 318.79,156.53 310.00,151.00 Z
           M 245.00,153.00
           C 246.85,157.44 249.06,155.11 254.00,155.37
             258.63,155.62 260.84,156.49 265.00,158.00
             265.00,158.00 267.00,155.00 267.00,155.00
             267.00,155.00 245.00,153.00 245.00,153.00 Z
           M 242.00,156.00
           C 242.00,156.00 239.00,160.00 239.00,160.00
             235.63,157.25 233.92,162.44 233.00,165.00
             237.78,164.25 240.46,162.73 242.00,158.00
             242.00,158.00 246.00,159.00 246.00,159.00
             246.00,159.00 244.00,156.00 244.00,156.00
             244.00,156.00 242.00,156.00 242.00,156.00 Z
           M 253.00,157.00
           C 253.00,157.00 257.00,159.00 257.00,159.00
             257.00,159.00 253.00,157.00 253.00,157.00 Z
           M 334.00,157.00
           C 334.88,161.61 335.33,163.47 340.00,165.00
             340.00,165.00 334.00,157.00 334.00,157.00 Z
           M 347.00,159.00
           C 347.00,159.00 346.00,164.00 346.00,164.00
             346.00,164.00 350.00,159.00 350.00,159.00
             350.00,159.00 347.00,159.00 347.00,159.00 Z
           M 363.00,159.00
           C 363.00,159.00 364.00,168.00 364.00,168.00
             364.00,168.00 366.00,168.00 366.00,168.00
             366.00,168.00 365.00,163.00 365.00,163.00
             365.00,163.00 368.00,162.00 368.00,162.00
             368.00,162.00 368.00,160.00 368.00,160.00
             368.00,160.00 363.00,159.00 363.00,159.00 Z
           M 366.00,160.00
           C 366.00,160.00 366.00,161.00 366.00,161.00
             366.00,161.00 365.00,160.00 365.00,160.00
             365.00,160.00 366.00,160.00 366.00,160.00 Z
           M 391.00,161.00
           C 391.00,161.00 390.00,168.00 390.00,168.00
             390.00,168.00 392.00,168.00 392.00,168.00
             392.00,168.00 391.00,161.00 391.00,161.00 Z
           M 208.00,162.00
           C 210.31,172.64 217.51,169.45 226.00,170.00
             226.00,170.00 226.00,167.16 226.00,167.16
             226.00,167.16 215.18,167.16 215.18,167.16
             215.18,167.16 208.00,162.00 208.00,162.00 Z
           M 19.00,164.00
           C 19.00,164.00 19.00,165.00 19.00,165.00
             19.00,165.00 18.00,164.00 18.00,164.00
             18.00,164.00 19.00,164.00 19.00,164.00 Z
           M 227.00,165.00
           C 227.00,165.00 231.00,167.00 231.00,167.00
             231.00,167.00 227.00,165.00 227.00,165.00 Z
           M 309.00,166.00
           C 309.00,166.00 309.00,167.00 309.00,167.00
             309.00,167.00 308.00,166.00 308.00,166.00
             308.00,166.00 309.00,166.00 309.00,166.00 Z
           M 334.00,165.00
           C 334.00,165.00 335.00,169.00 335.00,169.00
             335.00,169.00 334.00,165.00 334.00,165.00 Z
           M 337.00,174.00
           C 337.00,174.00 336.00,170.00 336.00,170.00
             334.70,173.32 334.40,185.32 336.87,188.01
             339.55,190.93 341.77,189.69 346.00,194.00
             346.00,194.00 354.00,194.00 354.00,194.00
             354.00,194.00 352.00,196.00 352.00,196.00
             352.00,196.00 358.00,197.00 358.00,197.00
             359.61,202.60 365.64,203.75 369.00,200.00
             361.73,199.50 361.09,196.01 355.00,192.82
             348.94,189.66 343.66,189.65 341.28,188.02
             336.64,184.84 337.73,175.51 339.80,171.09
             340.84,168.85 342.54,166.97 344.00,165.00
             338.89,166.44 337.95,169.04 337.00,174.00 Z
           M 34.00,167.00
           C 39.89,168.96 44.07,164.63 50.00,169.00
             50.00,169.00 52.00,169.00 52.00,169.00
             54.79,167.04 55.21,167.04 58.00,169.00
             58.00,169.00 60.00,169.00 60.00,169.00
             64.29,165.86 73.96,168.05 77.94,171.31
             80.16,173.13 80.83,174.53 82.00,177.00
             89.96,178.11 88.01,180.20 93.00,184.00
             90.41,174.77 85.92,173.86 79.00,167.00
             79.00,167.00 90.00,167.00 90.00,167.00
             90.00,167.00 88.00,170.00 88.00,170.00
             88.00,170.00 93.00,168.00 93.00,168.00
             93.00,168.00 92.00,171.00 92.00,171.00
             92.00,171.00 96.00,172.00 96.00,172.00
             95.48,165.48 92.87,166.03 87.00,166.06
             87.00,166.06 79.01,166.06 79.01,166.06
             79.01,166.06 73.58,166.86 73.58,166.86
             73.58,166.86 64.00,166.00 64.00,166.00
             56.63,165.97 40.31,165.21 34.00,167.00 Z
           M 94.00,169.00
           C 94.00,169.00 94.00,170.00 94.00,170.00
             94.00,170.00 93.00,169.00 93.00,169.00
             93.00,169.00 94.00,169.00 94.00,169.00 Z
           M 206.00,168.00
           C 206.00,168.00 204.00,173.00 204.00,173.00
             204.00,173.00 207.00,170.00 207.00,170.00
             207.00,170.00 209.00,172.00 209.00,172.00
             209.00,172.00 210.00,171.00 210.00,171.00
             210.00,171.00 208.00,168.00 208.00,168.00
             208.00,168.00 206.00,168.00 206.00,168.00 Z
           M 389.00,169.00
           C 388.53,172.54 388.61,172.80 392.00,174.00
             392.00,174.00 391.00,169.00 391.00,169.00
             391.00,169.00 389.00,169.00 389.00,169.00 Z
           M 171.00,170.00
           C 171.00,170.00 170.00,175.00 170.00,175.00
             173.64,173.50 174.61,172.65 178.00,175.00
             178.00,175.00 184.00,174.00 184.00,174.00
             184.00,174.00 188.00,177.00 188.00,177.00
             193.85,172.77 197.62,178.49 202.00,172.00
             186.03,173.29 186.83,172.85 171.00,170.00 Z
           M 172.00,172.00
           C 172.00,172.00 172.00,173.00 172.00,173.00
             172.00,173.00 171.00,172.00 171.00,172.00
             171.00,172.00 172.00,172.00 172.00,172.00 Z
           M 148.00,174.00
           C 148.00,174.00 148.00,177.00 148.00,177.00
             148.00,177.00 144.00,176.00 144.00,176.00
             144.70,177.15 144.76,178.00 146.29,178.50
             147.66,179.15 150.46,178.53 152.00,178.50
             157.76,177.85 166.53,178.16 169.00,172.00
             160.74,174.53 156.90,177.26 148.00,174.00 Z
           M 364.00,172.00
           C 364.00,172.00 363.00,176.00 363.00,176.00
             358.76,173.42 355.46,171.40 352.00,176.00
             352.00,176.00 371.00,183.00 371.00,183.00
             371.00,183.00 364.00,172.00 364.00,172.00 Z
           M 269.00,174.00
           C 269.00,174.00 269.00,181.00 269.00,181.00
             269.00,181.00 271.00,179.00 271.00,179.00
             271.00,179.00 276.00,185.00 276.00,185.00
             276.00,185.00 279.00,184.00 279.00,184.00
             280.85,186.10 281.39,185.68 284.00,185.00
             286.22,187.47 287.81,186.96 291.00,187.00
             286.16,182.23 282.24,184.07 277.04,181.43
             273.85,179.81 271.81,176.44 269.00,174.00 Z
           M 356.00,175.00
           C 356.00,175.00 356.00,176.00 356.00,176.00
             356.00,176.00 355.00,175.00 355.00,175.00
             355.00,175.00 356.00,175.00 356.00,175.00 Z
           M 121.00,175.00
           C 121.00,175.00 127.00,185.00 127.00,185.00
             127.00,185.00 130.00,180.00 130.00,180.00
             126.42,176.83 125.73,176.01 121.00,175.00 Z
           M 360.00,176.00
           C 360.00,176.00 360.00,177.00 360.00,177.00
             360.00,177.00 359.00,176.00 359.00,176.00
             359.00,176.00 360.00,176.00 360.00,176.00 Z
           M 365.00,176.00
           C 365.00,176.00 365.00,179.00 365.00,179.00
             365.00,179.00 362.00,178.00 362.00,178.00
             362.00,178.00 365.00,176.00 365.00,176.00 Z
           M 131.00,179.00
           C 131.00,179.00 143.00,180.00 143.00,180.00
             140.91,174.96 134.85,177.22 131.00,179.00 Z
           M 366.00,179.00
           C 366.00,179.00 366.00,180.00 366.00,180.00
             366.00,180.00 365.00,179.00 365.00,179.00
             365.00,179.00 366.00,179.00 366.00,179.00 Z
           M 127.00,180.00
           C 127.00,180.00 127.00,181.00 127.00,181.00
             127.00,181.00 126.00,180.00 126.00,180.00
             126.00,180.00 127.00,180.00 127.00,180.00 Z
           M 133.00,181.00
           C 128.53,187.79 130.02,193.32 130.41,201.00
             130.63,205.30 129.36,207.32 134.00,209.00
             134.00,209.00 132.01,192.00 132.01,192.00
             132.01,192.00 133.00,181.00 133.00,181.00 Z
           M 260.00,185.00
           C 260.00,185.00 257.00,184.00 257.00,184.00
             257.00,184.00 257.00,186.00 257.00,186.00
             257.00,186.00 259.00,187.00 259.00,187.00
             265.89,183.40 264.42,184.66 272.00,185.00
             272.00,185.00 267.00,184.00 267.00,184.00
             267.00,184.00 269.00,183.00 269.00,183.00
             265.18,181.49 262.41,181.40 260.00,185.00 Z
           M 377.15,183.00
           C 377.15,183.00 378.00,191.00 378.00,191.00
             378.00,191.00 375.00,196.00 375.00,196.00
             375.00,196.00 377.00,196.00 377.00,196.00
             377.00,196.00 375.00,207.00 375.00,207.00
             375.00,207.00 372.00,205.00 372.00,205.00
             373.70,208.35 374.35,208.48 378.00,209.00
             377.60,206.76 377.00,204.37 377.15,202.09
             378.05,196.41 382.42,187.77 377.15,183.00 Z
           M 311.86,185.00
           C 311.86,185.00 308.00,192.00 308.00,192.00
             310.28,193.07 309.10,196.63 309.00,199.00
             309.00,199.00 305.00,194.00 305.00,194.00
             305.00,194.00 307.00,191.00 307.00,191.00
             307.00,191.00 292.00,186.00 292.00,186.00
             295.24,191.39 299.25,191.58 305.00,192.00
             305.00,192.00 308.00,203.00 308.00,203.00
             308.00,203.00 311.00,202.00 311.00,202.00
             311.00,202.00 313.00,209.00 313.00,209.00
             313.00,209.00 310.00,207.00 310.00,207.00
             310.00,207.00 313.00,212.00 313.00,212.00
             313.00,212.00 315.00,212.00 315.00,212.00
             315.00,212.00 318.00,210.00 318.00,210.00
             318.00,210.00 318.00,215.00 318.00,215.00
             318.00,215.00 320.00,213.00 320.00,213.00
             329.85,216.70 337.83,216.34 348.00,215.00
             348.00,215.00 343.00,218.00 343.00,218.00
             349.15,218.79 354.20,213.90 356.00,225.00
             358.55,225.74 358.10,226.50 358.00,229.00
             358.00,229.00 360.00,229.00 360.00,229.00
             360.00,229.00 359.00,227.00 359.00,227.00
             359.00,227.00 364.00,229.00 364.00,229.00
             364.00,229.00 362.00,232.00 362.00,232.00
             365.57,234.42 366.54,235.97 371.00,236.00
             372.42,239.57 374.81,239.68 378.00,238.00
             374.06,235.54 365.14,228.21 362.31,224.83
             358.96,220.82 360.74,218.01 355.94,215.65
             345.64,210.58 328.44,219.53 316.30,206.53
             314.08,204.16 311.60,199.31 311.86,196.00
             311.89,191.12 315.47,189.94 311.86,185.00 Z
           M 252.00,186.00
           C 252.00,186.00 253.00,189.00 253.00,189.00
             253.00,189.00 256.00,186.00 256.00,186.00
             256.00,186.00 252.00,186.00 252.00,186.00 Z
           M 311.00,190.00
           C 311.00,190.00 311.00,191.00 311.00,191.00
             311.00,191.00 310.00,190.00 310.00,190.00
             310.00,190.00 311.00,190.00 311.00,190.00 Z
           M 128.00,190.00
           C 128.00,190.00 128.00,195.00 128.00,195.00
             128.00,195.00 128.00,190.00 128.00,190.00 Z
           M 348.00,192.00
           C 348.00,192.00 348.00,193.00 348.00,193.00
             348.00,193.00 347.00,192.00 347.00,192.00
             347.00,192.00 348.00,192.00 348.00,192.00 Z
           M 334.00,192.00
           C 334.00,192.00 338.00,194.00 338.00,194.00
             338.00,194.00 334.00,192.00 334.00,192.00 Z
           M 357.00,196.00
           C 357.00,196.00 357.00,197.00 357.00,197.00
             357.00,197.00 356.00,196.00 356.00,196.00
             356.00,196.00 357.00,196.00 357.00,196.00 Z
           M 209.00,197.00
           C 209.00,197.00 208.00,202.00 208.00,202.00
             208.00,202.00 210.00,201.00 210.00,201.00
             210.00,201.00 210.00,200.00 210.00,200.00
             214.23,202.17 220.64,203.06 224.00,199.00
             228.92,201.53 232.36,203.28 238.00,203.00
             240.24,206.33 241.30,205.93 245.00,205.00
             247.75,207.59 254.94,205.57 258.91,206.13
             261.01,206.63 263.23,208.52 264.00,206.13
             264.00,206.13 270.00,209.00 270.00,209.00
             271.38,205.54 280.78,206.05 284.00,207.00
             281.00,201.88 279.22,204.77 273.00,204.98
             273.00,204.98 245.00,203.33 245.00,203.33
             245.00,203.33 226.00,197.86 226.00,197.86
             222.63,197.30 221.89,198.57 217.00,197.86
             217.00,197.86 209.00,197.00 209.00,197.00 Z
           M 361.00,199.00
           C 361.00,199.00 361.00,200.00 361.00,200.00
             361.00,200.00 360.00,199.00 360.00,199.00
             360.00,199.00 361.00,199.00 361.00,199.00 Z
           M 111.00,199.00
           C 111.00,199.00 111.00,204.00 111.00,204.00
             111.00,204.00 114.00,203.00 114.00,203.00
             114.00,203.00 118.00,207.00 118.00,207.00
             116.61,202.28 115.41,201.11 111.00,199.00 Z
           M 205.00,201.00
           C 205.00,201.00 198.00,205.00 198.00,205.00
             198.00,205.00 201.00,208.00 201.00,208.00
             201.00,208.00 202.00,205.00 202.00,205.00
             202.00,205.00 205.00,206.00 205.00,206.00
             205.00,206.00 207.00,201.00 207.00,201.00
             207.00,201.00 205.00,201.00 205.00,201.00 Z
           M 241.00,204.00
           C 241.00,204.00 241.00,205.00 241.00,205.00
             241.00,205.00 240.00,204.00 240.00,204.00
             240.00,204.00 241.00,204.00 241.00,204.00 Z
           M 155.00,213.00
           C 155.00,213.00 154.00,210.00 154.00,210.00
             154.00,210.00 153.00,214.00 153.00,214.00
             153.00,214.00 158.00,210.00 158.00,210.00
             161.07,210.25 161.17,210.53 163.00,208.00
             166.21,208.26 166.91,208.58 169.00,206.00
             169.00,206.00 171.00,208.00 171.00,208.00
             176.08,205.19 178.21,206.08 183.00,209.00
             183.00,209.00 185.00,207.00 185.00,207.00
             186.99,208.62 187.78,209.80 190.00,208.00
             190.00,208.00 194.00,210.00 194.00,210.00
             194.86,207.43 195.85,207.87 198.00,209.00
             198.00,209.00 199.00,208.00 199.00,208.00
             194.72,205.23 192.75,206.29 188.00,205.83
             179.42,205.01 158.48,202.69 155.00,213.00 Z
           M 280.00,206.00
           C 280.00,206.00 276.00,210.00 276.00,210.00
             276.00,210.00 278.00,219.00 278.00,219.00
             278.00,219.00 281.00,218.00 281.00,218.00
             281.00,218.00 278.00,212.00 278.00,212.00
             280.07,209.62 280.78,209.17 280.00,206.00 Z
           M 314.00,209.00
           C 314.00,209.00 314.00,210.00 314.00,210.00
             314.00,210.00 313.00,209.00 313.00,209.00
             313.00,209.00 314.00,209.00 314.00,209.00 Z
           M 271.00,209.00
           C 271.00,209.00 275.00,212.00 275.00,212.00
             275.00,212.00 271.00,209.00 271.00,209.00 Z
           M 147.00,211.00
           C 147.00,211.00 151.00,215.00 151.00,215.00
             151.00,215.00 147.00,211.00 147.00,211.00 Z
           M 291.00,217.00
           C 291.00,217.00 296.00,225.00 296.00,225.00
             296.00,225.00 299.00,223.00 299.00,223.00
             299.00,223.00 303.00,230.00 303.00,230.00
             305.19,223.03 296.98,217.84 291.00,217.00 Z
           M 357.00,218.00
           C 357.00,218.00 357.00,219.00 357.00,219.00
             357.00,219.00 356.00,218.00 356.00,218.00
             356.00,218.00 357.00,218.00 357.00,218.00 Z
           M 135.00,219.00
           C 135.00,219.00 135.00,224.00 135.00,224.00
             135.00,224.00 141.00,229.00 141.00,229.00
             139.57,224.90 138.80,221.44 135.00,219.00 Z
           M 113.00,220.00
           C 113.00,220.00 114.00,229.00 114.00,229.00
             117.27,230.02 117.55,232.44 119.71,235.00
             123.06,238.96 124.92,240.74 130.00,242.00
             130.00,242.00 120.64,231.00 120.64,231.00
             120.64,231.00 115.00,220.00 115.00,220.00
             115.00,220.00 113.00,220.00 113.00,220.00 Z
           M 296.00,221.00
           C 296.00,221.00 296.00,222.00 296.00,222.00
             296.00,222.00 295.00,221.00 295.00,221.00
             295.00,221.00 296.00,221.00 296.00,221.00 Z
           M 298.00,222.00
           C 298.00,222.00 298.00,223.00 298.00,223.00
             298.00,223.00 297.00,222.00 297.00,222.00
             297.00,222.00 298.00,222.00 298.00,222.00 Z
           M 266.00,227.00
           C 268.30,230.83 270.79,231.92 275.00,233.00
             276.04,230.80 277.84,231.87 280.01,232.38
             285.52,233.67 286.29,234.34 292.00,233.00
             292.00,233.00 291.00,235.00 291.00,235.00
             291.00,235.00 292.00,235.00 292.00,235.00
             294.93,233.49 295.19,233.30 295.00,230.00
             295.00,230.00 289.42,232.01 289.42,232.01
             289.42,232.01 266.00,227.00 266.00,227.00 Z
           M 132.00,232.00
           C 132.00,232.00 136.00,229.00 136.00,229.00
             133.13,229.55 133.13,229.29 132.00,232.00 Z
           M 176.00,229.00
           C 178.56,231.63 181.11,233.59 184.72,234.58
             189.91,236.00 191.74,234.27 196.00,238.00
             196.00,238.00 191.00,241.00 191.00,241.00
             191.00,241.00 198.00,239.00 198.00,239.00
             198.00,239.00 196.00,237.00 196.00,237.00
             196.00,237.00 206.00,236.00 206.00,236.00
             203.32,233.01 199.83,234.21 196.00,233.83
             196.00,233.83 176.00,229.00 176.00,229.00 Z
           M 141.00,231.00
           C 141.00,231.00 143.00,235.00 143.00,235.00
             143.00,235.00 141.00,231.00 141.00,231.00 Z
           M 386.00,234.00
           C 386.00,234.00 384.00,243.00 384.00,243.00
             382.06,238.81 383.02,237.26 386.00,234.00 Z
           M 207.00,237.00
           C 207.00,237.00 218.00,235.47 218.00,235.47
             218.00,235.47 239.00,238.00 239.00,238.00
             239.00,238.00 238.00,241.00 238.00,241.00
             244.24,238.87 245.71,240.49 252.00,241.00
             246.71,236.77 226.21,234.09 219.00,234.00
             214.53,233.95 209.78,233.01 207.00,237.00 Z
           M 110.00,236.00
           C 110.00,236.00 110.00,237.00 110.00,237.00
             110.00,237.00 109.00,236.00 109.00,236.00
             109.00,236.00 110.00,236.00 110.00,236.00 Z
           M 281.00,235.00
           C 281.00,235.00 284.00,240.00 284.00,240.00
             284.00,240.00 287.00,239.00 287.00,239.00
             287.00,239.00 289.00,244.00 289.00,244.00
             289.00,244.00 295.00,245.00 295.00,245.00
             295.00,245.00 290.00,245.00 290.00,245.00
             291.20,248.52 291.61,248.56 295.00,250.00
             295.00,250.00 295.00,246.00 295.00,246.00
             295.00,246.00 300.00,249.00 300.00,249.00
             300.00,249.00 299.00,251.00 299.00,251.00
             299.00,251.00 307.00,254.00 307.00,254.00
             307.00,254.00 307.00,258.00 307.00,258.00
             307.00,258.00 311.00,258.00 311.00,258.00
             309.99,254.15 307.24,246.14 304.00,244.00
             304.00,244.00 304.00,249.00 304.00,249.00
             297.13,243.92 294.48,242.75 290.00,235.00
             290.00,235.00 289.00,238.00 289.00,238.00
             289.00,238.00 281.00,235.00 281.00,235.00 Z
           M 199.00,237.00
           C 199.00,237.00 203.00,238.00 203.00,238.00
             203.00,238.00 199.00,237.00 199.00,237.00 Z
           M 257.00,239.00
           C 261.27,242.92 262.75,240.49 268.00,240.09
             272.29,239.77 276.72,240.60 281.00,241.00
             281.00,241.00 282.00,240.00 282.00,240.00
             282.00,240.00 282.00,238.00 282.00,238.00
             282.00,238.00 281.00,237.00 281.00,237.00
             272.67,239.17 265.61,239.59 257.00,239.00 Z
           M 290.00,240.00
           C 290.00,240.00 290.00,241.00 290.00,241.00
             290.00,241.00 289.00,240.00 289.00,240.00
             289.00,240.00 290.00,240.00 290.00,240.00 Z
           M 331.00,240.00
           C 331.00,240.00 331.00,242.00 331.00,242.00
             331.00,242.00 334.00,243.00 334.00,243.00
             335.52,239.20 346.52,241.38 350.00,242.00
             350.00,242.00 349.00,245.00 349.00,245.00
             349.00,245.00 352.00,243.00 352.00,243.00
             352.00,243.00 356.00,252.00 356.00,252.00
             356.00,252.00 359.00,252.00 359.00,252.00
             359.00,252.00 357.00,254.00 357.00,254.00
             361.01,256.56 362.13,257.83 367.00,257.00
             364.84,253.98 354.85,242.69 351.96,241.17
             348.88,239.57 334.46,239.09 331.00,240.00 Z
           M 181.00,244.00
           C 185.30,242.57 187.68,243.28 190.00,240.00
             185.32,240.06 183.48,239.61 181.00,244.00 Z
           M 291.00,241.00
           C 291.00,241.00 291.00,242.00 291.00,242.00
             291.00,242.00 290.00,241.00 290.00,241.00
             290.00,241.00 291.00,241.00 291.00,241.00 Z
           M 310.00,240.00
           C 310.00,240.00 317.00,254.00 317.00,254.00
             318.60,254.18 323.14,255.02 320.00,257.00
             320.00,257.00 326.00,258.00 326.00,258.00
             323.64,253.00 314.93,242.45 310.00,240.00 Z
           M 185.00,243.00
           C 185.00,243.00 185.00,244.00 185.00,244.00
             185.00,244.00 186.00,243.00 186.00,243.00
             186.00,243.00 185.00,243.00 185.00,243.00 Z
           M 167.00,247.00
           C 167.00,247.00 167.00,248.00 167.00,248.00
             167.00,248.00 166.00,247.00 166.00,247.00
             166.00,247.00 167.00,247.00 167.00,247.00 Z
           M 305.00,249.00
           C 305.00,249.00 306.00,254.00 306.00,254.00
             306.00,254.00 303.00,251.00 303.00,251.00
             303.00,251.00 305.00,249.00 305.00,249.00 Z
           M 166.00,251.00
           C 166.00,251.00 163.00,251.00 163.00,251.00
             163.00,251.00 160.00,254.00 160.00,254.00
             161.35,250.28 162.26,250.35 166.00,251.00 Z
           M 302.00,250.00
           C 302.00,250.00 302.00,251.00 302.00,251.00
             302.00,251.00 301.00,250.00 301.00,250.00
             301.00,250.00 302.00,250.00 302.00,250.00 Z
           M 348.00,254.00
           C 350.71,252.87 350.45,252.87 351.00,250.00
             351.00,250.00 353.00,251.00 353.00,251.00
             353.00,251.00 354.00,250.00 354.00,250.00
             350.02,248.85 349.14,250.41 348.00,254.00 Z
           M 158.00,252.00
           C 158.00,252.00 158.00,253.00 158.00,253.00
             158.00,253.00 157.00,252.00 157.00,252.00
             157.00,252.00 158.00,252.00 158.00,252.00 Z
           M 360.00,253.00
           C 360.00,253.00 360.00,254.00 360.00,254.00
             360.00,254.00 359.00,253.00 359.00,253.00
             359.00,253.00 360.00,253.00 360.00,253.00 Z
           M 362.00,254.00
           C 362.00,254.00 362.00,255.00 362.00,255.00
             362.00,255.00 361.00,254.00 361.00,254.00
             361.00,254.00 362.00,254.00 362.00,254.00 Z
           M 135.00,255.00
           C 135.00,255.00 135.00,256.00 135.00,256.00
             135.00,256.00 134.00,255.00 134.00,255.00
             134.00,255.00 135.00,255.00 135.00,255.00 Z
           M 150.00,254.00
           C 150.00,254.00 150.00,255.00 150.00,255.00
             150.00,255.00 151.00,254.00 151.00,254.00
             151.00,254.00 150.00,254.00 150.00,254.00 Z
           M 363.00,269.00
           C 363.00,269.00 363.00,270.00 363.00,270.00
             363.00,270.00 362.00,269.00 362.00,269.00
             362.00,269.00 363.00,269.00 363.00,269.00 Z
           M 366.00,269.00
           C 366.00,269.00 366.00,270.00 366.00,270.00
             366.00,270.00 365.00,269.00 365.00,269.00
             365.00,269.00 366.00,269.00 366.00,269.00 Z
           M 271.00,327.00
           C 271.00,327.00 271.00,328.00 271.00,328.00
             271.00,328.00 270.00,327.00 270.00,327.00
             270.00,327.00 271.00,327.00 271.00,327.00 Z" />
</svg>
